<svg height="512" viewBox="0 0 64 64" width="512" xmlns="http://www.w3.org/2000/svg"><g id="bond"><path d="m3 3h58v28h-58z" fill="#00d7df"/><path d="m61 3v28h-58v-4h42a12 12 0 0 0 12-12v-12z" fill="#009698"/><path d="m61 26v5h-5a5 5 0 0 1 5-5z" fill="#e0e0e2"/><path d="m61 3v5a5 5 0 0 1 -5-5z" fill="#e0e0e2"/><path d="m57 52-10 9-10-9h4v-17h12v17z" fill="#ff7956"/><circle cx="54" cy="17" fill="#e0e0e2" r="3"/><path d="m27 52-10 9-10-9h4v-17h12v17z" fill="#ff7956"/><g fill="#e0e0e2"><circle cx="10" cy="17" r="3"/><path d="m3 3h5a5 5 0 0 1 -5 5z"/><path d="m8 31h-5v-5a5 5 0 0 1 5 5z"/><circle cx="32" cy="17" r="10"/></g><path d="m42 17a10 10 0 0 1 -18.41 5.41 10 10 0 0 0 13.82-13.82 9.992 9.992 0 0 1 4.59 8.41z" fill="#898890"/><path d="m11 35h12v4h-12z" fill="#ff5023"/><path d="m41 35h12v4h-12z" fill="#ff5023"/><path d="m27.93 51.64a1 1 0 0 0 -.93-.64h-3v-16a1 1 0 0 0 -1-1h-12a1 1 0 0 0 -1 1v16h-3a1 1 0 0 0 -.93.64.985.985 0 0 0 .26 1.1l10 9a.993.993 0 0 0 1.34 0l10-9a.985.985 0 0 0 .26-1.1zm-10.93 8.01-7.39-6.65h1.39a1 1 0 0 0 1-1v-16h10v16a1 1 0 0 0 1 1h1.39z"/><path d="m57.93 51.64a1 1 0 0 0 -.93-.64h-3v-16a1 1 0 0 0 -1-1h-12a1 1 0 0 0 -1 1v16h-3a1 1 0 0 0 -.93.64.985.985 0 0 0 .26 1.1l10 9a.993.993 0 0 0 1.34 0l10-9a.985.985 0 0 0 .26-1.1zm-10.93 8.01-7.39-6.65h1.39a1 1 0 0 0 1-1v-16h10v16a1 1 0 0 0 1 1h1.39z"/><path d="m10 13a4 4 0 1 0 4 4 4 4 0 0 0 -4-4zm0 6a2 2 0 1 1 2-2 2 2 0 0 1 -2 2z"/><path d="m50 17a4 4 0 1 0 4-4 4 4 0 0 0 -4 4zm6 0a2 2 0 1 1 -2-2 2 2 0 0 1 2 2z"/><path d="m61 2h-58a1 1 0 0 0 -1 1v28a1 1 0 0 0 1 1h58a1 1 0 0 0 1-1v-28a1 1 0 0 0 -1-1zm-57 2h2.86a4.017 4.017 0 0 1 -2.86 2.86zm0 26v-2.86a4.017 4.017 0 0 1 2.86 2.86zm56 0h-2.86a4.017 4.017 0 0 1 2.86-2.86zm0-4.91a5.992 5.992 0 0 0 -4.91 4.91h-46.18a5.992 5.992 0 0 0 -4.91-4.91v-16.18a5.992 5.992 0 0 0 4.91-4.91h46.18a5.992 5.992 0 0 0 4.91 4.91zm0-18.23a4.017 4.017 0 0 1 -2.86-2.86h2.86z"/><path d="m32 6a11 11 0 1 0 11 11 11.013 11.013 0 0 0 -11-11zm0 20a9 9 0 1 1 9-9 9.011 9.011 0 0 1 -9 9z"/><path d="m33 10h-2v2a2 2 0 0 0 -2 2v2a2 2 0 0 0 2 2h2v2h-4v2h2v2h2v-2a2 2 0 0 0 2-2v-2a2 2 0 0 0 -2-2h-2v-2h4v-2h-2z"/></g></svg>