<svg xmlns="http://www.w3.org/2000/svg" width="90" height="90" viewBox="0 0 90 90">
  <g>
    <rect width="90" height="90" x="0" y="0" fill="none"/>
    <g>
      <path fill="rgb(55,151,240)" fill-rule="evenodd" d="M16.71573411 64.09189104l47.37614104-47.37616765c2.53670785-2.53670928 6.65567888-2.53671044 9.19238815-.00000258 2.53670928 2.53670785 2.53671044 6.65567888.00000259 9.19238815L25.90812485 73.28427661c-2.53670785 2.53670928-6.65567888 2.53671044-9.19238815.00000258-2.53670928-2.53670785-2.53671044-6.65567888-.00000259-9.19238815z"/>
      <path fill="rgb(55,151,240)" fill-rule="evenodd" d="M25.90812485 16.7157234L73.2842659 64.09189103c2.53670785 2.53670927 2.5367067 6.6556803-.00000259 9.19238815-2.53670927 2.53670786-6.6556803 2.5367067-9.19238815-.00000258L16.7157341 25.90810896c-2.53670785-2.53670927-2.5367067-6.6556803.00000259-9.19238815 2.53670927-2.53670786 6.6556803-2.5367067 9.19238815.00000258z"/>
    </g>
  </g>
</svg>
