<svg id="Icon_Set" enable-background="new 0 0 64 64" height="512" viewBox="0 0 64 64" width="512" xmlns="http://www.w3.org/2000/svg"><circle cx="26" cy="40" fill="#99a2b9" r="20"/><path d="m26 60.5c-11.304 0-20.5-9.196-20.5-20.5s9.196-20.5 20.5-20.5 20.5 9.196 20.5 20.5-9.196 20.5-20.5 20.5zm0-40c-10.752 0-19.5 8.748-19.5 19.5s8.748 19.5 19.5 19.5 19.5-8.748 19.5-19.5-8.748-19.5-19.5-19.5z" fill="#212a41"/><circle cx="30" cy="40" fill="#b7c0d7" r="20"/><path d="m30 60.5c-11.304 0-20.5-9.196-20.5-20.5s9.196-20.5 20.5-20.5 20.5 9.196 20.5 20.5-9.196 20.5-20.5 20.5zm0-40c-10.752 0-19.5 8.748-19.5 19.5s8.748 19.5 19.5 19.5 19.5-8.748 19.5-19.5-8.748-19.5-19.5-19.5z" fill="#212a41"/><path d="m12 40.5c-.276 0-.5-.224-.5-.5 0-10.201 8.299-18.5 18.5-18.5.276 0 .5.224.5.5s-.224.5-.5.5c-9.649 0-17.5 7.851-17.5 17.5 0 .276-.224.5-.5.5z" fill="#d5def5"/><path d="m30 58.5c-.276 0-.5-.224-.5-.5s.224-.5.5-.5c9.649 0 17.5-7.851 17.5-17.5 0-.276.224-.5.5-.5s.5.224.5.5c0 10.201-8.299 18.5-18.5 18.5z" fill="#99a2b9"/><path d="m51 27.5h-12c-.552 0-1-.448-1-1v-11c0-.552.448-1 1-1h12c.552 0 1 .448 1 1v11c0 .552-.448 1-1 1z" fill="#db8e11"/><path d="m51 28h-12c-.827 0-1.5-.673-1.5-1.5v-11c0-.827.673-1.5 1.5-1.5h12c.827 0 1.5.673 1.5 1.5v11c0 .827-.673 1.5-1.5 1.5zm-12-13c-.276 0-.5.224-.5.5v11c0 .276.224.5.5.5h12c.276 0 .5-.224.5-.5v-11c0-.276-.224-.5-.5-.5z" fill="#212a41"/><path d="m57 27.5h-12c-.552 0-1-.448-1-1v-11c0-.552.448-1 1-1h12c.552 0 1 .448 1 1v11c0 .552-.448 1-1 1z" fill="#f9ac2f"/><path d="m57 28h-12c-.827 0-1.5-.673-1.5-1.5v-11c0-.827.673-1.5 1.5-1.5h12c.827 0 1.5.673 1.5 1.5v11c0 .827-.673 1.5-1.5 1.5zm-12-13c-.276 0-.5.224-.5.5v11c0 .276.224.5.5.5h12c.276 0 .5-.224.5-.5v-11c0-.276-.224-.5-.5-.5z" fill="#212a41"/><path d="m54.5 14.5h-3v-7c0-.276-.224-.5-.5-.5h-6c-.276 0-.5.224-.5.5v7h-3v-7c0-1.93 1.57-3.5 3.5-3.5h6c1.93 0 3.5 1.57 3.5 3.5z" fill="#e0e0e0"/><path d="m54.5 15h-3c-.276 0-.5-.224-.5-.5v-7h-6v7c0 .276-.224.5-.5.5h-3c-.276 0-.5-.224-.5-.5v-7c0-2.206 1.794-4 4-4h6c2.206 0 4 1.794 4 4v7c0 .276-.224.5-.5.5zm-2.5-1h2v-6.5c0-1.654-1.346-3-3-3h-6c-1.654 0-3 1.346-3 3v6.5h2v-6.5c0-.551.449-1 1-1h6c.551 0 1 .449 1 1z" fill="#212a41"/><path d="m24 38.5c-2.481 0-4.5-2.019-4.5-4.5s2.019-4.5 4.5-4.5 4.5 2.019 4.5 4.5-2.019 4.5-4.5 4.5zm0-6c-.827 0-1.5.673-1.5 1.5s.673 1.5 1.5 1.5 1.5-.673 1.5-1.5-.673-1.5-1.5-1.5z" fill="#0079a8"/><path d="m24 39c-2.757 0-5-2.243-5-5s2.243-5 5-5 5 2.243 5 5-2.243 5-5 5zm0-9c-2.206 0-4 1.794-4 4s1.794 4 4 4 4-1.794 4-4-1.794-4-4-4zm0 6c-1.103 0-2-.897-2-2s.897-2 2-2 2 .897 2 2-.897 2-2 2zm0-3c-.551 0-1 .449-1 1s.449 1 1 1 1-.449 1-1-.449-1-1-1z" fill="#212a41"/><path d="m36 50.5c-2.481 0-4.5-2.019-4.5-4.5s2.019-4.5 4.5-4.5 4.5 2.019 4.5 4.5-2.019 4.5-4.5 4.5zm0-6c-.827 0-1.5.673-1.5 1.5s.673 1.5 1.5 1.5 1.5-.673 1.5-1.5-.673-1.5-1.5-1.5z" fill="#0079a8"/><path d="m36 51c-2.757 0-5-2.243-5-5s2.243-5 5-5 5 2.243 5 5-2.243 5-5 5zm0-9c-2.206 0-4 1.794-4 4s1.794 4 4 4 4-1.794 4-4-1.794-4-4-4zm0 6c-1.103 0-2-.897-2-2s.897-2 2-2 2 .897 2 2-.897 2-2 2zm0-3c-.551 0-1 .449-1 1s.449 1 1 1 1-.449 1-1-.449-1-1-1z" fill="#212a41"/><path d="m22 49.5c-.384 0-.768-.146-1.061-.439-.586-.585-.586-1.536 0-2.121l16-16c.586-.586 1.535-.586 2.121 0 .586.585.586 1.536 0 2.121l-16 16c-.292.293-.676.439-1.06.439z" fill="#0079a8"/><g fill="#212a41"><path d="m22 50c-.534 0-1.036-.208-1.414-.586-.378-.377-.586-.88-.586-1.414s.208-1.037.586-1.414l16-16c.779-.78 2.049-.78 2.828 0 .378.377.586.88.586 1.414s-.208 1.037-.586 1.414l-16 16c-.378.378-.88.586-1.414.586zm16-19c-.256 0-.512.098-.707.292l-16 16c-.189.19-.293.441-.293.708s.104.518.293.707c.378.378 1.036.378 1.414 0l16-16c.189-.189.293-.44.293-.707s-.104-.518-.293-.707c-.195-.195-.451-.293-.707-.293z"/><path d="m49.5 24.5c-.128 0-.256-.049-.354-.146l-3-3c-.195-.195-.195-.512 0-.707s.512-.195.707 0l2.646 2.646 5.646-5.646c.195-.195.512-.195.707 0s.195.512 0 .707l-6 6c-.096.097-.224.146-.352.146z"/></g></svg>