<svg xmlns="http://www.w3.org/2000/svg" width="90" height="90" viewBox="0 0 90 90">
  <g>
    <rect width="90" height="90" x="0" y="0" fill="none"/>
    <g>
      <path fill="rgb(55,151,240)" fill-rule="evenodd" d="M11.5 14.5h67c3.58744766 0 6.5 2.91255234 6.5 6.5s-2.91255234 6.5-6.5 6.5h-67C7.91255234 27.5 5 24.58744766 5 21s2.91255234-6.5 6.5-6.5z"/>
      <path fill="rgb(55,151,240)" fill-rule="evenodd" d="M11.5 38.5h67c3.58744766 0 6.5 2.91255234 6.5 6.5s-2.91255234 6.5-6.5 6.5h-67C7.91255234 51.5 5 48.58744766 5 45s2.91255234-6.5 6.5-6.5z"/>
      <path fill="rgb(55,151,240)" fill-rule="evenodd" d="M11.5 62.5h67c3.58744766 0 6.5 2.91255234 6.5 6.5s-2.91255234 6.5-6.5 6.5h-67C7.91255234 75.5 5 72.58744766 5 69s2.91255234-6.5 6.5-6.5z"/>
    </g>
  </g>
</svg>
