<svg height="512pt" viewBox="0 0 512 512" width="512pt" xmlns="http://www.w3.org/2000/svg"><path d="m512 256c0 141.386719-114.613281 256-256 256s-256-114.613281-256-256 114.613281-256 256-256 256 114.613281 256 256zm0 0" fill="#fd3019"/><path d="m502.777344 324.273438-167.269532-167.273438-243.648437 192.351562 162.628906 162.628907c.503907.003906 1.003907.019531 1.511719.019531 117.738281 0 216.898438-79.488281 246.777344-187.726562zm0 0" fill="#e71e15"/><path d="m420.140625 349.351562h-103.871094v-153.878906h39.070313c13.628906 0 25.210937 9.289063 28.167968 22.59375l7.800782 35.109375c15.902344.011719 28.832031 12.953125 28.832031 28.855469zm0 0" fill="#aeadb4"/><path d="m335.507812 349.351562h-243.648437v-192.351562h243.648437zm0 0" fill="#fedb41"/><path d="m335.507812 349.351562h-79.507812v-192.351562h79.507812zm0 0" fill="#fcbf27"/><path d="m351.535156 375c-19.445312 0-35.265625-15.820312-35.265625-35.265625s15.820313-35.265625 35.265625-35.265625c19.445313 0 35.265625 15.820312 35.265625 35.265625s-15.820312 35.265625-35.265625 35.265625zm0 0" fill="#2b292c"/><path d="m165.59375 375c-19.445312 0-35.265625-15.820312-35.265625-35.265625s15.820313-35.265625 35.265625-35.265625 35.265625 15.820312 35.265625 35.265625-15.820313 35.265625-35.265625 35.265625zm0 0" fill="#3c3a41"/><path d="m223.941406 307.675781c-30.050781 0-54.5-24.449219-54.5-54.5s24.449219-54.5 54.5-54.5c30.050782 0 54.5 24.449219 54.5 54.5s-24.449218 54.5-54.5 54.5zm0 0" fill="#e5e5e5"/><path d="m243.175781 243.558594h-9.617187v-9.617188h-19.234375v9.617188h-9.617188v19.234375h9.617188v9.617187h19.234375v-9.617187h9.617187zm0 0" fill="#fd3019"/><path d="m256 209.140625v88.070313c13.589844-9.917969 22.441406-25.957032 22.441406-44.035157 0-18.074219-8.851562-34.113281-22.441406-44.035156zm0 0" fill="#c8c6ce"/></svg>