<svg height="512" viewBox="0 0 64 64" width="512" xmlns="http://www.w3.org/2000/svg"><g id="fervent"><circle cx="22" cy="22" fill="#00d7df" r="18"/><path d="m59.75 54.09a4 4 0 0 1 -5.66 5.66l-16.26-16.26 1.42-1.41 2.83-2.83 1.41-1.42z" fill="#c0ab91"/><path d="m59.75 59.75a3.993 3.993 0 0 1 -4.83.63 3.87 3.87 0 0 0 .83-.63 4.008 4.008 0 0 0 0-5.66l-14.25-14.25.58-.59 1.41-1.42 16.26 16.26a4.008 4.008 0 0 1 0 5.66z" fill="#b39a7c"/><path d="m42.08 39.25-2.83 2.83-.01-.01-6.01-6.01a17.219 17.219 0 0 0 2.83-2.83l6.01 6.01z" fill="#ffdaaa"/><circle cx="51" cy="13" fill="#57a4ff" r="10"/><path d="m40 22a18 18 0 0 1 -18 18 18.851 18.851 0 0 1 -2-.11 18 18 0 0 0 0-35.78 18.851 18.851 0 0 1 2-.11 18 18 0 0 1 18 18z" fill="#009698"/><path d="m61 13a10 10 0 0 1 -11.99 9.8 10.005 10.005 0 0 0 0-19.6 10 10 0 0 1 11.99 9.8z" fill="#2488ff"/><path d="m3 45h30v16h-30z" fill="#ff7956"/><path d="m30 15v14h-16v-14h4v6l4-2 4 2v-6z" fill="#c0ab91"/><path d="m26 15v6l-4-2-4 2v-6z" fill="#ff7956"/><path d="m29 45h4v16h-4z" fill="#ff5023"/><path d="m30 14h-16a1 1 0 0 0 -1 1v14a1 1 0 0 0 1 1h16a1 1 0 0 0 1-1v-14a1 1 0 0 0 -1-1zm-11 2h6v3.382l-2.553-1.277a1 1 0 0 0 -.894 0l-2.553 1.277zm10 12h-14v-12h2v5a1 1 0 0 0 1.447.895l3.553-1.777 3.553 1.782a1 1 0 0 0 1.447-.9v-5h2z"/><path d="m60.46 53.38-16.27-16.26a1 1 0 0 0 -1.41 0l-.71.71-4.7-4.7a19.059 19.059 0 1 0 -4.24 4.24l4.7 4.7-.71.71a1 1 0 0 0 0 1.41l16.26 16.27a5.006 5.006 0 0 0 7.08-7.08zm-38.46-14.38a17 17 0 1 1 17-17 17.024 17.024 0 0 1 -17 17zm12.69-2.9a18.757 18.757 0 0 0 1.41-1.41l4.56 4.55-1.42 1.42zm24.35 22.94a3 3 0 0 1 -4.24 0l-15.56-15.55 4.25-4.25 15.55 15.56a3 3 0 0 1 0 4.24z"/><path d="m51 2a11 11 0 1 0 11 11 11.007 11.007 0 0 0 -11-11zm-6.72 16.97a9 9 0 0 1 -2.22-4.97h2.64a17.551 17.551 0 0 0 .7 4.21 10.5 10.5 0 0 0 -1.12.76zm.42-6.97h-2.64a9 9 0 0 1 2.22-4.97 10.5 10.5 0 0 0 1.12.76 17.551 17.551 0 0 0 -.7 4.21zm1.1 8.33c.11-.07.22-.15.33-.23.11.23.23.46.35.67-.23-.14-.46-.28-.68-.44zm.33-14.43c-.11-.08-.22-.16-.33-.23.22-.16.45-.3.68-.44-.12.21-.24.44-.35.67zm3.87 15.81a5.588 5.588 0 0 1 -2.07-2.5 9.158 9.158 0 0 1 2.07-.48zm0-5a11.367 11.367 0 0 0 -2.77.63 15.676 15.676 0 0 1 -.53-3.34h3.3zm0-4.71h-3.3a15.676 15.676 0 0 1 .53-3.34 11.367 11.367 0 0 0 2.77.63zm0-4.73a9.158 9.158 0 0 1 -2.07-.48 5.588 5.588 0 0 1 2.07-2.5zm7.72-.24a9 9 0 0 1 2.22 4.97h-2.64a17.551 17.551 0 0 0 -.7-4.21 10.5 10.5 0 0 0 1.12-.76zm-5.72-2.74a5.588 5.588 0 0 1 2.07 2.5 9.158 9.158 0 0 1 -2.07.48zm0 17.42v-2.98a9.158 9.158 0 0 1 2.07.48 5.588 5.588 0 0 1 -2.07 2.5zm2.77-4.37a11.367 11.367 0 0 0 -2.77-.63v-2.71h3.3a15.676 15.676 0 0 1 -.53 3.34zm-2.77-5.34v-2.71a11.367 11.367 0 0 0 2.77-.63 15.676 15.676 0 0 1 .53 3.34zm3.52 8.77c.12-.21.24-.44.35-.67.11.08.22.16.33.23-.22.16-.45.3-.68.44zm.35-14.87c-.11-.23-.23-.46-.35-.67.23.14.46.28.68.44-.11.07-.22.15-.33.23zm1.85 13.07a10.5 10.5 0 0 0 -1.12-.76 17.551 17.551 0 0 0 .7-4.21h2.64a9 9 0 0 1 -2.22 4.97z"/><path d="m50 30h-9v2h10a1 1 0 0 0 1-1v-5h-2z"/><path d="m33 44h-30a1 1 0 0 0 -1 1v16a1 1 0 0 0 1 1h30a1 1 0 0 0 1-1v-16a1 1 0 0 0 -1-1zm-1 16h-28v-14h28z"/><path d="m6 48h2v2h-2z"/><path d="m10 48h20v2h-20z"/><path d="m6 52h24v2h-24z"/><path d="m6 56h24v2h-24z"/></g></svg>