<svg id="_x33_0" enable-background="new 0 0 64 64" height="512" viewBox="0 0 64 64" width="512" xmlns="http://www.w3.org/2000/svg"><g><g><g><path d="m22 32h.2c-1.67 1.64-2.93 3.69-3.62 6h-15.58c-.55 0-1-.45-1-1v-4c0-.55.45-1 1-1h4 7 1z" fill="#aab2bd"/></g><g><path d="m44 32h10 4 3c.55 0 1 .45 1 1v4c0 .55-.45 1-1 1h-15.58c-.69-2.31-1.95-4.36-3.62-6z" fill="#aab2bd"/></g><g><path d="m61.59 13.59c.26.26.41.62.41 1 0 .78-.63 1.41-1.41 1.41h-2.59l-9-9-9 9h-2.59c-.78 0-1.41-.63-1.41-1.41 0-.38.15-.74.41-1l10.88-10.88c.46-.46 1.07-.71 1.71-.71s1.25.25 1.71.71z" fill="#d3a06c"/></g><g><path d="m58 16h-18l9-9z" fill="#cf9e76"/></g><g><path d="m40 16v14.51c.64.45 1.24.95 1.8 1.49h2.2 14v-16z" fill="#e6e9ed"/></g><g><path d="m44 26v-6h10v12h-10z" fill="#ccd1d9"/></g><g><path d="m32 21v4c0 .55-.45 1-1 1h-16c-.55 0-1-.45-1-1v-4c0-.28.11-.52.29-.71.19-.18.43-.29.71-.29h16c.55 0 1 .45 1 1z" fill="#fcd770"/></g><g><path d="m14 31c0 .55.45 1 1 1h-1-7c-.55 0-1-.45-1-1v-4c0-.55.45-1 1-1h7l.29.29c-.18.19-.29.43-.29.71z" fill="#fcd770"/></g><g><path d="m15 20c-.28 0-.52.11-.71.29l-.29-.29h-7c-.55 0-1-.45-1-1v-4c0-.55.45-1 1-1h8c-.55 0-1 .45-1 1v4c0 .55.45 1 1 1z" fill="#fcd770"/></g><g><path d="m24 3v4c0 .55-.45 1-1 1h-16c-.55 0-1-.45-1-1v-4c0-.55.45-1 1-1h16c.55 0 1 .45 1 1z" fill="#fcd770"/></g><g><path d="m24 9v4c0 .55-.45 1-1 1h-6-2-8c-.55 0-1-.45-1-1v-4c0-.55.45-1 1-1h16c.55 0 1 .45 1 1z" fill="#ffc729"/></g><g><path d="m15 26c-.28 0-.52.11-.71.29l-.29-.29h-7c-.55 0-1-.45-1-1v-4c0-.55.45-1 1-1h7l.29.29c-.18.19-.29.43-.29.71v4c0 .55.45 1 1 1z" fill="#ffc729"/></g><g><path d="m32 15v4c0 .55-.45 1-1 1h-16c-.55 0-1-.45-1-1v-4c0-.55.45-1 1-1h2 6 8c.55 0 1 .45 1 1z" fill="#ffc729"/></g><g><path d="m31 26c.55 0 1 .45 1 1v1c-3.82 0-7.28 1.53-9.8 4h-.2-7c-.55 0-1-.45-1-1v-4c0-.28.11-.52.29-.71.19-.18.43-.29.71-.29z" fill="#ffc729"/></g><g><path d="m46 57v4c0 .55-.45 1-1 1h-26c-.55 0-1-.45-1-1v-4c0-.55.45-1 1-1h13 13c.55 0 1 .45 1 1z" fill="#aab2bd"/></g><g><path d="m40 30.51c.64.45 1.24.95 1.8 1.49 1.67 1.64 2.93 3.69 3.62 6 .38 1.27.58 2.61.58 4 0 7.73-6.27 14-14 14s-14-6.27-14-14c0-1.39.2-2.73.58-4 .69-2.31 1.95-4.36 3.62-6 2.52-2.47 5.98-4 9.8-4 2.97 0 5.73.93 8 2.51z" fill="#fcd770"/></g></g><g><path d="m33 33.101v-2.101h-2v2h-4v5c0 2.757 2.243 5 5 5 1.654 0 3 1.346 3 3v3h-3c-1.654 0-3-1.346-3-3v-3h-2v3c0 2.414 1.721 4.434 4 4.899v2.101h2v-2h4v-5c0-2.757-2.243-5-5-5-1.654 0-3-1.346-3-3v-3h3c1.654 0 3 1.346 3 3v3h2v-3c0-2.414-1.721-4.434-4-4.899z"/><path d="m61 31h-2v-14h1.586c1.331 0 2.414-1.083 2.414-2.414 0-.635-.258-1.257-.706-1.707l-10.88-10.879c-1.291-1.289-3.537-1.29-4.828 0l-10.88 10.879c-.448.45-.706 1.072-.706 1.707 0 1.331 1.083 2.414 2.414 2.414h1.586v11.744c-1.812-.961-3.845-1.55-6-1.693v-.051c0-.366-.106-.705-.278-1 .172-.295.278-.634.278-1v-4c0-.366-.106-.705-.278-1 .172-.295.278-.634.278-1v-4c0-1.103-.897-2-2-2h-6v-4c0-.366-.106-.705-.278-1 .172-.295.278-.634.278-1v-4c0-1.103-.897-2-2-2h-16c-1.103 0-2 .897-2 2v4c0 .366.106.705.278 1-.172.295-.278.634-.278 1v4c0 .366.106.705.278 1-.172.295-.278.634-.278 1v4c0 .366.106.705.278 1-.172.295-.278.634-.278 1v4c0 .366.106.705.278 1-.172.295-.278.634-.278 1v4h-2c-1.103 0-2 .897-2 2v4c0 1.103.897 2 2 2h14.302c-.197.97-.302 1.973-.302 3 0 5.558 3.045 10.409 7.548 13h-5.548c-1.103 0-2 .897-2 2v4c0 1.103.897 2 2 2h26c1.103 0 2-.897 2-2v-4c0-1.103-.897-2-2-2h-5.548c4.503-2.591 7.548-7.442 7.548-13 0-1.027-.105-2.03-.302-3h14.302c1.103 0 2-.897 2-2v-4c0-1.103-.897-2-2-2zm-24-16.414c0-.109.044-.216.121-.293l10.879-10.878c.268-.268.622-.415 1-.415s.732.147 1 .414l10.878 10.878c.078.078.122.185.122.294 0 .228-.186.414-.414.414h-2.172l-9.414-9.414-9.414 9.414h-2.172c-.228 0-.414-.186-.414-.414zm18.586.414h-13.172l6.586-6.586zm-14.586 2h16v14h-2v-12h-12v12h-.836c-.371-.343-.759-.667-1.164-.972zm4 10h2v-2h-2v-4h8v10h-8zm-23.164 4h-6.836v-4h16v.051c-3.527.234-6.718 1.688-9.164 3.949zm-14.836-10h6v4h-6zm0-6h6v4h-6zm24.001 10h-16.001v-4h16zm-.001-10 .001 4h-.001-16v-4h2 6zm-14-2h-2-8v-4h16l.001 4zm-10-10h16l.001 4h-.001-16zm0 24h6v4h-6zm-4 10v-4h4 7 1 5.028c-.909 1.206-1.639 2.551-2.153 4zm42 20 .001 4h-26.001v-4zm-13-2c-7.168 0-13-5.832-13-13s5.832-13 13-13 13 5.832 13 13-5.832 13-13 13zm29-18h-14.875c-.515-1.449-1.244-2.794-2.153-4h17.028z"/></g></g></svg>