<svg xmlns="http://www.w3.org/2000/svg" width="430" height="508" viewBox="0 0 430 508">
  <path fill="rgb(55,151,240)" fill-rule="evenodd" d="M10 70C4.47700119 70 0 65.52300262 0 60V10C0 4.47700024 4.47700119 0 10 0h50c5.52300262 0 10 4.47700024 10 10s-4.47699738 10-10 10H20v40c0 5.52300262-4.47700119 10-10 10zM5 498v-12.6499939c0-66.67199707 45.22000122-103.02999878 65.01999664-114.8999939C96.91101074 354.33999635 125.79499817 342.16000367 156 334.15701295v-16.10101318c-5.03599548-4.44500733-9.63999939-9.5-13.70799255-15.13400269-11.97801209-16.58898926-21.75401307-34.5750122-29.12200928-53.56500244-6.74299622-.92099-12.90800476-5.21199036-16.07798767-11.9249878-3.02301026-6.39900207-23.99201203-45.18901061-27.20500946-52.0920105-8.14499665-17.50099181 2.5-34.79100036 15.99500274-40.35699462 2.24699402-.92700195 4.55699158-1.61199951 6.90699768-2.00300598C90.60400391 134.04100037 89.5 124.84799957 89.5 115.50099945 89.5 51.81299973 141.31300354 0 205 0c11.19200134 0 21.79199219 4.28100014 29.8460083 12.0539999.08599854.08300018.2210083.08300018.30700684 0C243.20898437 4.28100014 253.8079834 0 265 0c43.28500366 0 78.5 35.21500015 78.5 78.5v18.21099854c0 15.68099975-2.15301514 31.11700439-6.40200806 46.07899475 2.40100098.38900756 4.79800415 1.01600647 7.07202149 2.04501342 16.60397339 7.5189972 23.08798218 26.09999085 15.99398803 40.35699463-3.3909912 6.81500244-24.18099975 45.69000244-27.20498657 52.09199524-3.16900635 6.70899964-9.33200073 11-16.07000732 11.92399597-7.37200928 19.03599549-17.16299439 37.06401062-29.16500855 53.6900177C283.65100098 308.53900146 279.0419922 313.60101318 274 318.05099487v16.10501099c30.20401001 8.00299072 59.08898926 20.1829834 85.98001099 36.29299927C379.77999878 382.31900024 425 418.67700195 425 485.34899903V498c0 5.52301025-4.47698975 10-10 10H260.08999634c-5.73098755 0-10.35897827-4.84698486-9.97799683-10.66900635C250.46002197 492.01599121 255.11499023 488 260.44097901 488H405c0-42.22601318-21.19000244-79.9500122-55.30999756-100.39001465-24.08700561-14.43399048-49.8829956-25.52697754-76.83499145-33.04699707C267.46499634 381.57699585 243.57598877 402 215 402c-28.57499695 0-52.46499634-20.42199707-57.85499573-47.43701172-26.94599914 7.52001953-52.74900818 18.6130066-76.83500671 33.04699707C46.19000244 408.0499878 25 444.6130066 25 488h145.1000061c5.73999024 0 10.36199952 4.87200928 9.96699524 10.69500732C179.70599365 504 175.05400085 508 169.73699951 508H15c-5.52299881 0-10-4.47698975-10-10zM420 70c-5.52301025 0-10-4.47699738-10-10V20h-40c-5.52301025 0-10-4.47700024-10-10s4.47698975-10 10-10h50c5.52301025 0 10 4.47700024 10 10v50c0 5.52300262-4.47698975 10-10 10zM148.00698853 99c-23.74899292 0-37.5479889 16.94799805-38.47099305 18.03299713C109.03199768 62.29000092 152.34100342 20 205 20c5.98400879 0 11.65100098 2.28899956 15.95700073 6.4449997 7.875 7.60099792 20.21200562 7.60200119 28.08599854 0C253.34997559 22.28899955 259.01699829 20 265.00097657 20c32.25701904 0 58.5 26.24300003 58.5 58.5v18.21199799c0 9.35300445-.8659668 18.60700225-2.58599854 27.70000457-6.50598145-9.20999908-15.37698365-16.7369995-25.97796631-21.70899963-10.7789917-5.0550003-17.65200806-16.12800598-17.93902588-28.89800262-.12298584-5.4350052-4.56399536-9.77700043-10-9.77600098-5.4369812.00099945-9.87597656 4.34500122-9.99597168 9.77999878C256.41900635 100.27100372 235.77301026 121 210 121c-10.89099121 0-21.45899963-3.7330017-29.75900269-10.51200104C171.23100281 103.12799836 159.85299683 99 148.00698853 99zM300.7130127 235.27200317c-6.9670105 19.92700196-16.8010254 38.7380066-29.2050171 55.92001343-13.32000732 18.45098877-33.91799926 29.03399658-56.51098632 29.03796387-22.5840149.00201416-43.17501831-10.57397461-56.4900055-29.01397705-12.3809967-17.14700318-22.19500732-35.92100525-29.16900634-55.80000305-.91499329-2.60800171-5.0479889-8.897995-13.85398865-5.83299256-3.16200256-7.16101074-24.51400757-46.36801147-27.51400757-52.78399658-2.6800003-5.73200989 1.19099426-11.60301208 5.72599793-13.40301514 2.8600006-1.13598632 6.03800964-1.07499694 8.81800842.29600525C109.22599792 167.0019989 117.03199768 162.09899902 117 154.7539978v-3.93699646c0-8.41700744 3.53799438-16.65499878 9.55400085-22.7579956 11.05900574-11.21900177 28.98300171-11.80400086 41.03500367-2.08000183 30.89399719 24.92500305 70.57200622 15.82800293 89.5519867-4.63200379 4.28900146-4.62199402 8.19500732-9.49299621 11.20401-14.90699768 4.77700806 6.0530014 10.90899658 10.99900055 18.09899902 14.3710022 14.2250061 6.67099762 24.32000733 19.8849945 26.11898804 35.45799255.7920227 6.86000061 8.46902466 10.602005 14.6760254 7.43099976 2.8789978-1.47099304 6.15499877-1.68598938 9.1159973-.45500183 5.24301148 2.18000793 8.0329895 8.52900696 5.72598267 13.40400696-3.02798462 6.40000915-23.91900635 45.02900695-27.6289978 52.93199157-7.8710022-3.09698486-12.51599121 2.19400025-13.73898315 5.69100952zM10 343h50c5.52300262 0 10-4.47698975 10-10s-4.47699738-10-10-10H20v-40c0-5.52301025-4.47700119-10-10-10s-10 4.47698975-10 10v50c0 5.52301025 4.47700119 10 10 10zm360 0h50c5.52301025 0 10-4.47698975 10-10v-50c0-5.52301025-4.47698975-10-10-10s-10 4.47698975-10 10v40h-40c-5.52301025 0-10 4.47698975-10 10s4.47698975 10 10 10zm-116-11.62701416c-23.67700195 11.17599487-51.03199768 12.46600342-78 .0039978V343c0 21.50497437 17.49499512 39 39 39s39-17.49502563 39-39v-11.62701416zM225.1000061 498c0 5.51000977-4.49002075 10-10.01000976 10-5.5099945 0-10-4.48999023-10-10s4.4900055-10 10-10c5.51998901 0 10.01000976 4.48999023 10.01000976 10z"/>
</svg>
