<svg xmlns="http://www.w3.org/2000/svg" xmlns:xlink="http://www.w3.org/1999/xlink" width="682.667" height="682" viewBox="0 0 682.667 682">
  <defs>
    <rect id="rect-1" width="682.667" height="682" x="0" y="0"/>
    <mask id="mask-2" maskContentUnits="userSpaceOnUse" maskUnits="userSpaceOnUse">
      <rect width="682.667" height="682" x="0" y="0" fill="black"/>
      <use fill="white" xlink:href="#rect-1"/>
    </mask>
  </defs>
  <g>
    <use fill="none" xlink:href="#rect-1"/>
    <g mask="url(#mask-2)">
      <path fill="rgb(55,151,240)" fill-rule="evenodd" d="M658.77736044 314.38671875c-6.359375-20.48828125-25.7578125-34.16796875-47.203125-33.30859375l-4.57421875.1875c-13.41796875.546875-26.0390625 6.078125-35.4921875 15.53125l-70.71487427 69.97265625c-1.67578125-2.55859375-3.59765625-4.9921875-5.78515625-7.26171875-9.296875-9.66015625-22.3203125-15.1953125-35.7265625-15.1953125h-99.74609375c-18.8203125 0-37.171875-2.44140625-54.5546875-7.25-45.27342224-12.53125-88.47264099-3.484375-124.92967224 26.16015625-15.37890625 12.51171875-26.43359375 26.1640625-33.21484375 35.8125-7.6796875-5.33984375-16.81640625-8.140625-26.29296875-7.98046875-12.01953125.20703125-23.23046875 5.08203125-31.5625 13.7421875l-64.4726584 66.92578125c-4.7617178 4.94140625-4.66406178 12.796875.22656298 17.62109375l51.84765792 51.140625c4.92578125 4.85546875 12.8671875 4.8046875 17.73046875-.125 4.85546875-4.9296875 4.8046875-12.86328125-.125-17.7265625l-43.02734566-42.4375L107.03515768 422.1875c3.67578125-3.81640625 8.625-5.97265625 13.92578125-6.05859375 5.3515625-.09765625 10.31640625 1.89453125 14.125 5.5859375l99.69140625 96.7421875c3.80078125 3.69140625 5.9375 8.63671875 6.01171875 13.93359375.07421875 5.30078125-1.921875 10.3046875-5.62109375 14.1015625l-54.90625 56.3359375-14.12890625-13.45703125c-5.015625-4.77734375-12.94921875-4.58203125-17.7265625.43359375-4.76953125 5.015625-4.57421875 12.94921875.44140625 17.71875l23.09765625 22.00390625c2.4296875 2.30859375 5.5390625 3.45703125 8.64453125 3.45703125 3.265625 0 6.5234375-1.26953125 8.98046875-3.78515625l63.5546875-65.2109375c8.37890625-8.59375 12.8984375-19.94140625 12.734375-31.94140625-.078125-5.48828125-1.140625-10.8125-3.0859375-15.7734375l22.3867035-2.60546875c10.38671874-1.20703125 20.953125-1.82421875 31.41015624-1.82421875h151.76953125c2.32421875 0 4.67578125-.09765625 6.9921875-.29296875l14.54296875-1.2109375c14.7421875-1.22265625 28.94921875-6.33984375 41.09375-14.78515625C536.9297042 491.40625 542.3359542 486.5 547.0390792 480.96484375l102.26953125-120.3203125c10.9296875-12.85546875 14.46484375-30.14453125 9.46875-46.2578125zM630.20704794 344.40625L527.93357992 464.7265625c-3.30078125 3.8828125-7.09765625 7.328125-11.28515625 10.2421875-8.52734375 5.93359375-18.5078125 9.5234375-28.8515625 10.38671875l-14.55078125 1.2109375c-1.62109375.13671875-3.27734375.20703125-4.90625.20703125H316.57029867c-11.421875 0-22.96484375.66796875-34.3046875 1.984375l-36.24998474 4.21875-80.1953125-77.328125c5.4609375-8.09375 15.49609375-21.140625 30.05078125-32.97265625 30.3203125-24.65234375 64.77734375-31.87109375 102.42185974-21.453125 19.55859375 5.4140625 40.1640625 8.15625 61.2421875 8.15625h99.74609375c6.62890625 0 13.0703125 2.7421875 17.671875 7.515625 3.36328125 3.4921875 5.49609375 7.7734375 6.375 12.26171875-.015625 1.1328125.125 2.26171875.41796875 3.359375.33203125 5.87890625-1.4296875 11.87109375-5.34375 16.7421875l-.38671875.484375c-4.67578125 5.828125-11.6484375 9.17578125-19.125 9.17578125h-86.8359375c-6.92578125 0-12.53515625 5.609375-12.53515625 12.53125 0 6.92578125 5.609375 12.5390625 12.53515625 12.5390625h86.8359375c15.12109375 0 29.21875-6.765625 38.68359375-18.56640625l.38671875-.48046875c7.25-9.03125 10.84375-19.9609375 10.87890625-30.8671875l80.34378052-79.50390625c5.0390625-5.03515625 11.7265625-7.96875 18.83984375-8.2578125l4.578125-.18359375c10.109375-.4296875 19.23828125 6.03515625 22.23046875 15.6875 2.44140625 7.8671875.7109375 16.3125-4.625 22.58984375z"/>
      <path fill="rgb(55,151,240)" fill-rule="evenodd" d="M120.6796875 442.56640625c-18.71875 0-33.9453125 15.23046875-33.9453125 33.9453125 0 18.72265625 15.2265625 33.953125 33.9453125 33.953125s33.94921875-15.23046875 33.94921875-33.953125c0-18.71484375-15.23046875-33.9453125-33.94921875-33.9453125zm0 42.82421875c-4.89453125 0-8.87890625-3.98046875-8.87890625-8.87890625 0-4.890625 3.984375-8.87109375 8.87890625-8.87109375 4.890625 0 8.875 3.98046875 8.875 8.87109375 0 4.8984375-3.984375 8.87890625-8.875 8.87890625z"/>
      <path fill="rgb(55,151,240)" fill-rule="evenodd" d="M318.14453125 420.91796875l.64453125-.15234375c6.7421875-1.57421875 13.48828125 2.59765625 15.0703125 9.3359375s-2.59765625 13.48828125-9.3359375 15.0703125l-.6484375.1484375c-.9609375.2265625-1.9296875.33984375-2.875.33984375-5.6875 0-10.83984375-3.8984375-12.19140625-9.671875C307.21875 429.25 311.40625 422.5 318.14453125 420.91796875z"/>
      <path fill="rgb(55,151,240)" fill-rule="evenodd" d="M118.41796875 553.58984375l.6484375-.15234375c6.73828125-1.578125 13.48828125 2.59765625 15.0703125 9.33984375 1.5859375 6.73828125-2.59765625 13.48828125-9.3359375 15.0703125l-.64453125.1484375c-.96875.2265625-1.9296875.33203125-2.8828125.33203125-5.6875 0-10.8359375-3.89453125-12.19140625-9.671875-1.58203125-6.73828125 2.59765625-13.48046875 9.3359375-15.06640625z"/>
      <path fill="rgb(55,151,240)" fill-rule="evenodd" d="M387.890625 311.92968726c73.15625 0 132.671875-59.515625 132.671875-132.671875S461.046875 46.58203101 387.890625 46.58203101c-30.0078125 0-58.3125 9.77343846-81.85546875 28.2578125-5.37890625 4.21875-10.46875 8.890625-15.1328125 13.890625-6.9765625 7.47265625-13.08984375 15.75-18.1640625 24.58984375-11.46484375 19.98046875-17.51953125 42.78515625-17.51953125 65.9375 0 73.15625 59.515625 132.671875 132.671875 132.671875zm-93.40625-186.1328125c4.1171875-7.17578125 9.07421875-13.890625 14.7421875-19.95703125 3.78515625-4.0625 7.921875-7.8515625 12.28515625-11.27734375 19.09375-14.984375 42.046875-22.90625 66.37890625-22.90625 59.328125 0 107.6015625 48.265625 107.6015625 107.6015625 0 59.33203125-48.2734375 107.6015625-107.6015625 107.6015625-59.33203125 0-107.60546875-48.26953125-107.60546875-107.6015625 0-18.78515625 4.91015625-37.26953125 14.19921875-53.4609375z"/>
      <path fill="rgb(55,151,240)" fill-rule="evenodd" d="M382.93359375 226.234375c4.453125 0 11.01953125-1.06640625 16.07421875-4.0703125 5.328125-3.16796875 7.69921875-7.640625 7.69921875-14.515625 0-11.6796875-14.90625-18.28125-18.671875-18.5859375-13.71484375-.0390625-43.5703125-9.75-43.5703125-38.47265625 0-23.41796875 14.83203125-35.58203125 28.52734375-40.671875v-.8203125c0-6.921875 5.61328125-12.5390625 12.53515625-12.5390625 6.6796875 0 12.1171875 5.2265625 12.5 11.80859375 6.8359375 1.9453125 13.40625 5.84375 18.890625 11.3203125 9.12109375 9.125 9.12109375 18.203125 9.12109375 26.21484375 0 6.92578125-5.6171875 12.55859375-12.5390625 12.55859375-6.91796875 0-12.53515625-5.5859375-12.53515625-12.5078125 0-6.7578125-.171875-6.92578125-1.77734375-8.53515625-3.33984375-3.33984375-7.578125-5.41015625-11.0625-5.41015625-.1875 0-18.58984375.5078125-18.58984375 18.58203125 0 11.76953125 18.40234375 13.40625 18.58984375 13.40625 14.8125 0 43.65625 15.41015625 43.65625 43.65625 0 23.55859375-15.625 37.0390625-33.73046875 41.73828125-.1328125 6.8125-5.68359375 12.29296875-12.5234375 12.29296875-6.66015625 0-12.08984375-5.19921875-12.49609375-11.7578125C355.2265625 244.8984375 342 226.6328125 342 204.921875c0-6.921875 5.609375-12.53515625 12.53515625-12.53515625 6.921875 0 12.53515625 5.61328125 12.53515625 12.53515625 0 11.3515625 7.41015625 21.3125 15.86328125 21.3125z"/>
    </g>
  </g>
</svg>
