<svg xmlns="http://www.w3.org/2000/svg" xmlns:xlink="http://www.w3.org/1999/xlink" width="511.998" height="511.998" viewBox="0 0 511.998 511.998">
  <defs>
    <rect id="rect-1" width="511.998" height="511.998" x="0" y="0"/>
    <mask id="mask-2" maskContentUnits="userSpaceOnUse" maskUnits="userSpaceOnUse">
      <rect width="511.998" height="511.998" x="0" y="0" fill="black"/>
      <use fill="white" xlink:href="#rect-1"/>
    </mask>
  </defs>
  <g>
    <use fill="none" xlink:href="#rect-1"/>
    <g mask="url(#mask-2)">
      <path fill="rgb(55,151,240)" fill-rule="evenodd" d="M105.999 185.998c-5.52 0-10 4.48-10 10s4.48 10 10 10 10-4.48 10-10-4.48-10-10-10z"/>
      <path fill="rgb(55,151,240)" fill-rule="evenodd" d="M295.99899292 205.9980011h50c5.52200317 0 10 4.47799682 10 10v59.99998474c0 5.5220337-4.47799683 10-10 10h-50v50c0 5.5220337-4.47799683 10-10 10h-60c-5.52200317 0-10-4.4779663-10-10v-50h-50c-5.52200317 0-10-4.4779663-10-10V215.9980011c0-5.52200318 4.47799683-10 10-10h50v-50c0-5.52200318 4.47799683-10 10-10h60c5.52200317 0 10 4.47799682 10 10v50zm-10 59.99998474h50V225.9980011h-50c-5.52200317 0-10-4.47799683-10-10v-50h-40v50c0 5.52200317-4.47799683 10-10 10h-50v39.99998474h50c5.52200317 0 10 4.47802734 10 10v50h40v-50c0-5.52197266 4.47799683-10 10-10z"/>
      <path fill="rgb(55,151,240)" fill-rule="evenodd" d="M355.99900055 46.80799866c19.38198852 0 38.18499756-5.5550003 54.375-16.06699944 19.76699829-12.83399963 45.625 2.27400017 45.625 25.56699944v203.97001648c0 45.36697387-14.55300903 89.69998169-40.9790039 124.83099365-65.36898804 86.90899658-151.4459839 124.51898193-155.07800294 126.07800293-1.2579956.53997803-2.60198974.81097412-3.94299316.81097412-1.34100342 0-2.68399048-.2709961-3.94299316-.81097412-3.63198853-1.559021-89.70900727-39.17001343-155.07900239-126.08901978-26.4240036-35.11999511-40.97800445-79.44900512-40.97800445-124.8199768V56.3069992c0-23.29100037 25.85199737-38.39999962 45.625-25.56699944 16.18999481 10.51099968 34.99300384 16.06699944 54.37499237 16.06699944 29.64102936 0 57.58301544-13.04299927 76.65802765-35.7859993C238.53299713 4.01800013 247.04102325 0 255.99900055 0c8.95800781 0 17.46600342 4.01800013 23.34100342 11.02200031h.00100708c19.0750122 22.74299908 47.0159912 35.78599835 76.6579895 35.78599835zM255.9930191 490.98001099c17.37997437-8.3590088 88.68197632-45.61801148 143.04397583-117.89300537 23.83599854-31.6880188 36.96200562-71.75 36.96200562-112.80899048V56.30799866c0-7.72799683-8.5039978-12.83899689-14.73400879-8.79199982-19.44198608 12.6210022-42.00997925 19.29199982-65.26599121 19.29199982-35.57000732 0-69.09597778-15.64899826-91.98199463-42.93299866-2.09500122-2.49900055-4.94198608-3.875-8.01800537-3.875-3.07598877 0-5.92300415 1.37599945-8.01898193 3.875-22.88400269 27.28499985-56.41101075 42.93299866-91.9810257 42.93299866-23.2559967 0-45.82499695-6.67099762-65.26599121-19.29199982-6.33300018-4.11000061-14.73400116 1.17900085-14.73400116 8.79199982V260.2789917c0 41.06201172 13.12599945 81.11999512 36.96099853 112.79699707 54.48200226 72.44400024 125.6459961 109.56500244 143.03302002 117.90402222z"/>
      <path fill="rgb(55,151,240)" fill-rule="evenodd" d="M411.769 80.021c-2.654-1.874-6.051-2.342-9.113-1.257-15.045 5.338-30.743 8.044-46.656 8.044-34.373 0-67.522-12.689-93.342-35.73-3.793-3.385-9.523-3.385-13.316 0-25.819 23.041-58.969 35.73-93.342 35.73-15.913 0-31.611-2.706-46.656-8.044-3.064-1.085-6.459-.617-9.113 1.257-2.652 1.874-4.23 4.92-4.23 8.168v67.81c0 5.522 4.478 10 10 10s10-4.478 10-10v-54.293c13.058 3.39 26.46 5.103 40 5.103 36.395 0 71.575-12.433 100-35.181 28.425 22.748 63.605 35.181 100 35.181 13.54 0 26.942-1.713 40-5.103v158.573c0 32.451-10.273 63.964-28.934 88.74-37.813 50.296-83.997 81.439-110.972 96.772-27.188-15.534-73.669-46.913-111.164-96.756C126.275 324.244 116 292.723 116 260.278v-24.28c0-5.522-4.478-10-10-10s-10 4.478-10 10v24.28c0 36.756 11.702 72.548 32.949 100.781 42.051 55.902 94.681 89.75 122.31 104.951 1.501.825 3.16 1.238 4.82 1.238 1.65 0 3.302-.408 4.796-1.225 27.416-14.984 79.745-48.548 122.172-104.979 21.249-28.216 32.952-64.001 32.952-100.766V88.188c0-3.248-1.578-6.293-4.23-8.167z"/>
    </g>
  </g>
</svg>
