<svg xmlns="http://www.w3.org/2000/svg" xmlns:xlink="http://www.w3.org/1999/xlink" width="438.891" height="438.891" viewBox="0 0 438.891 438.891">
  <defs>
    <rect id="rect-1" width="438.891" height="438.891" x="0" y="0"/>
    <mask id="mask-2" maskContentUnits="userSpaceOnUse" maskUnits="userSpaceOnUse">
      <rect width="438.891" height="438.891" x="0" y="0" fill="black"/>
      <use fill="white" xlink:href="#rect-1"/>
    </mask>
  </defs>
  <g>
    <use fill="none" xlink:href="#rect-1"/>
    <g mask="url(#mask-2)">
      <path fill="rgb(55,151,240)" fill-rule="evenodd" d="M347.9679985 57.502999h-39.70599365V39.74000233c0-5.74700165-6.2690277-8.35900116-12.01600647-8.35900116h-30.82400512C258.10799789 10.4829995 239.8220024.03400004 218.92399216.03400004 198.25599289-.74299998 179.45699692 11.93 172.42599106 31.38100117H142.1239891c-5.74699402 0-11.49398804 2.6119995-11.49398804 8.35900116V57.502999H90.92300415c-23.5300064.25100327-42.7800064 18.81299973-43.8860054 42.3180046v299.36297608c0 22.9880066 20.8979988 39.70599365 43.8860054 39.70599365H347.9679985c22.9880066 0 43.88598633-16.71798706 43.88598633-39.70599365V99.82200306c-1.10598755-23.50600433-20.35598755-42.0680008-43.88598633-42.31900406zm-196.44100952-5.22399902h28.73500061c5.01599121-.61199951 9.04499817-4.4280014 9.92700196-9.40399933 3.09399414-13.47399903 14.91499328-23.14599991 28.7350006-23.51000023 13.69200135.41500091 25.33500672 10.11699867 28.21199036 23.51000023.93701172 5.14800262 5.2320099 9.01300049 10.44900513 9.40399933h29.77999878v41.7959938H151.52698898v-41.7959938zm196.44100952 365.7140007c11.49401856 0 22.9880066-7.31399536 22.9880066-18.80801392h-.00100708V99.82099598c-1.065979-11.96399689-10.97900391-21.19999695-22.98797608-21.41999817h-39.70602417v26.6459961c-.80700683 5.93500518-6.036026 10.25400543-12.01600647 9.92700195H142.12299728c-5.87199401.30599975-10.94200134-4.07299805-11.4940033-9.92700196V78.40199726H90.92299653c-12.01000214.21900177-21.92199707 9.45600128-22.98799896 21.41999817v299.36299133c0 11.49401856 11.4940033 18.80801392 22.98799896 18.80801392H347.9679985z"/>
      <path fill="rgb(55,151,240)" fill-rule="evenodd" d="M179.217 233.569c-3.919-4.131-10.425-4.364-14.629-.522l-33.437 31.869-14.106-14.629c-3.919-4.131-10.425-4.363-14.629-.522-4.047 4.24-4.047 10.911 0 15.151l21.42 21.943c1.854 2.076 4.532 3.224 7.314 3.135 2.756-.039 5.385-1.166 7.314-3.135l40.751-38.661c4.04-3.706 4.31-9.986.603-14.025-.19-.211-.391-.412-.601-.604z"/>
      <path fill="rgb(55,151,240)" fill-rule="evenodd" d="M329.16 256.034H208.997c-5.771 0-10.449 4.678-10.449 10.449s4.678 10.449 10.449 10.449H329.16c5.771 0 10.449-4.678 10.449-10.449s-4.678-10.449-10.449-10.449z"/>
      <path fill="rgb(55,151,240)" fill-rule="evenodd" d="M179.217 149.977c-3.919-4.131-10.425-4.364-14.629-.522l-33.437 31.869-14.106-14.629c-3.919-4.131-10.425-4.364-14.629-.522-4.047 4.24-4.047 10.911 0 15.151l21.42 21.943c1.854 2.076 4.532 3.224 7.314 3.135 2.756-.039 5.385-1.166 7.314-3.135l40.751-38.661c4.04-3.706 4.31-9.986.603-14.025-.19-.211-.391-.412-.601-.604z"/>
      <path fill="rgb(55,151,240)" fill-rule="evenodd" d="M329.16 172.442H208.997c-5.771 0-10.449 4.678-10.449 10.449s4.678 10.449 10.449 10.449H329.16c5.771 0 10.449-4.678 10.449-10.449s-4.678-10.449-10.449-10.449z"/>
      <path fill="rgb(55,151,240)" fill-rule="evenodd" d="M179.217 317.16c-3.919-4.131-10.425-4.363-14.629-.522l-33.437 31.869-14.106-14.629c-3.919-4.131-10.425-4.363-14.629-.522-4.047 4.24-4.047 10.911 0 15.151l21.42 21.943c1.854 2.076 4.532 3.224 7.314 3.135 2.756-.039 5.385-1.166 7.314-3.135l40.751-38.661c4.04-3.706 4.31-9.986.603-14.025-.19-.21-.391-.411-.601-.604z"/>
      <path fill="rgb(55,151,240)" fill-rule="evenodd" d="M329.16 339.626H208.997c-5.771 0-10.449 4.678-10.449 10.449s4.678 10.449 10.449 10.449H329.16c5.771 0 10.449-4.678 10.449-10.449s-4.678-10.449-10.449-10.449z"/>
    </g>
  </g>
</svg>
