<svg id="Capa_1" enable-background="new 0 0 512 512" height="512" viewBox="0 0 512 512" width="512" xmlns="http://www.w3.org/2000/svg"><g><g><path d="m489.28 310.095v142.78c0 16.56-13.43 30-30 30h-407c-16.57 0-30-13.44-30-30v-143.33c12.82 16.25 32.69 26.69 55 26.69h357.44c22.06 0 41.729-10.2 54.56-26.14z" fill="#e19974"/><path d="m489.28 310.095v142.78c0 16.56-13.43 30-30 30h-407c-16.57 0-30-13.44-30-30v-143.33c12.82 16.25 32.69 26.69 55 26.69h357.44c22.06 0 41.729-10.2 54.56-26.14z" fill="#e19974"/><path d="m72.279 366.055v56.82c0 16.56 13.43 30 30 30h387c0 16.56-13.43 30-30 30h-407c-16.57 0-30-13.44-30-30v-143.33c12.82 16.25 32.69 26.69 55 26.69h357.44c22.06 0 41.73-10.2 54.56-26.14v30c-12.83 15.94-32.5 26.14-54.56 26.14h-357.44c-1.679 0-3.349-.07-5-.18z" fill="#dc8758"/><path d="m474.72 102.87h-437.441c-16.569 0-30 13.431-30 30v133.366c0 38.66 31.34 70 70 70h357.441c38.66 0 70-31.34 70-70v-133.366c0-16.568-13.431-30-30-30z" fill="#fedba6"/><path d="m127.279 336.235h-50c-38.66 0-70-31.34-70-70v-133.36c0-16.57 13.43-30 30-30h50c-16.57 0-30 13.43-30 30v133.36c0 38.66 31.341 70 70 70z" fill="#fece85"/><g fill="#fdb441"><path d="m95.279 306.236h40v60h-40z"/><path d="m376.28 306.236h40v60h-40z"/><path d="m225.779 239.845h60v30h-60z"/></g><path d="m329.826 62.875-4.031-13.212c-3.722-12.201-14.981-20.538-27.738-20.538h-84.556c-12.757 0-24.015 8.336-27.738 20.538l-4.031 13.212z" fill="#e19974"/></g><g><path d="m512 132.982c0-20.661-16.809-37.47-37.47-37.47h-45.58c-4.143 0-7.5 3.358-7.5 7.5s3.357 7.5 7.5 7.5h45.58c12.39 0 22.47 10.08 22.47 22.47v133.25c0 14.396-4.763 27.922-13.771 39.116-11.932 14.816-29.671 23.314-48.669 23.314h-10.921v-22.468-13.213c0-15.154-12.328-27.482-27.482-27.482s-27.482 12.329-27.482 27.482v13.213 22.472h-225.788v-22.472-13.213c0-15.154-12.328-27.482-27.482-27.482s-27.482 12.329-27.482 27.482v13.213 22.468h-10.483c-19.247 0-37.129-8.677-49.06-23.803-8.753-11.105-13.38-24.462-13.38-38.627v-39.98c0-4.142-3.357-7.5-7.5-7.5s-7.5 3.358-7.5 7.5v39.98c0 16.672 5.179 32.439 14.99 45.782v140.688c0 20.661 16.809 37.47 37.47 37.47h101.36c4.143 0 7.5-3.358 7.5-7.5s-3.357-7.5-7.5-7.5h-101.36c-12.39 0-22.47-10.08-22.47-22.47v-125.251c13.425 10.443 29.982 16.211 47.45 16.211h10.481v22.476.003 13.21c0 15.154 12.328 27.482 27.482 27.482s27.482-12.329 27.482-27.482v-13.21-.003-22.472h225.787v22.472.003 13.21c0 15.154 12.328 27.482 27.482 27.482s27.482-12.329 27.482-27.482v-13.21-.003-22.476h10.921c17.247 0 33.651-5.651 47.011-15.883v124.923c0 12.39-10.08 22.47-22.471 22.47h-272.597c-4.143 0-7.5 3.358-7.5 7.5s3.357 7.5 7.5 7.5h272.6c20.661 0 37.471-16.809 37.471-37.47v-140.1c9.963-13.324 15.43-29.679 15.43-46.37v-133.25zm-409.078 225.656v-44.944h24.965v44.944zm0-65.657c0-6.883 5.6-12.482 12.482-12.482s12.482 5.6 12.482 12.482v5.713h-24.965v-5.713zm12.482 98.852c-6.883 0-12.482-5.6-12.482-12.482v-5.71h24.965v5.71c0 6.883-5.6 12.482-12.483 12.482zm268.27-33.195v-44.944h24.965v44.944zm0-65.657c0-6.883 5.6-12.482 12.482-12.482s12.482 5.6 12.482 12.482v5.713h-24.965v-5.713zm12.482 98.852c-6.883 0-12.482-5.6-12.482-12.482v-5.71h24.965v5.71c0 6.883-5.6 12.482-12.483 12.482z"/><path d="m7.5 201.062c4.143 0 7.5-3.358 7.5-7.5v-60.58c0-12.39 10.08-22.47 22.47-22.47h132.146.06 172.245c.01 0 .02.002.03.002.011 0 .022-.002.033-.002h54.276c4.143 0 7.5-3.358 7.5-7.5s-3.357-7.5-7.5-7.5h-48.752l-10.573-34.659c-.007-.021-.013-.043-.02-.064l-4.006-13.131c-4.715-15.45-18.734-25.831-34.888-25.831h-84.48c-16.153 0-30.173 10.38-34.888 25.831l-4.005 13.129c-.007.023-.014.045-.021.068l-10.573 34.656h-126.584c-20.661.001-37.47 16.81-37.47 37.471v60.58c0 4.142 3.357 7.5 7.5 7.5zm206.04-164.234h84.48c9.51 0 17.765 6.112 20.54 15.208l1.072 3.512h-127.703l1.071-3.512c2.775-9.097 11.03-15.208 20.54-15.208zm-26.188 33.72h136.856l7.616 24.964h-152.088z"/><path d="m225.807 232.361c-4.143 0-7.5 3.358-7.5 7.5v29.974c0 4.142 3.357 7.5 7.5 7.5h59.947c4.143 0 7.5-3.358 7.5-7.5v-29.974c0-4.142-3.357-7.5-7.5-7.5zm52.447 29.974h-44.947v-14.974h44.947z"/></g></g></svg>