<?xml version="1.0" encoding="iso-8859-1"?>
<!-- Generator: Adobe Illustrator 19.0.0, SVG Export Plug-In . SVG Version: 6.00 Build 0)  -->
<svg version="1.1" id="Capa_1" xmlns="http://www.w3.org/2000/svg" xmlns:xlink="http://www.w3.org/1999/xlink" x="0px" y="0px"
	 viewBox="0 0 512 512" style="enable-background:new 0 0 512 512;" xml:space="preserve">
<circle style="fill:#FF00C3;" cx="256" cy="256" r="256"/>
<path style="fill:#DD05B4;" d="M511.437,272.8L382.833,144.195L129.167,409.25L230.67,510.753C239.004,511.572,247.452,512,256,512
	C391.739,512,502.783,406.351,511.437,272.8z"/>
<polygon style="fill:#495959;" points="325.887,87.25 129.167,87.25 129.167,409.25 382.833,409.25 382.833,144.195 "/>
<polygon style="fill:#3F4A4A;" points="382.833,144.195 325.887,87.25 255.571,87.25 255.571,409.25 382.833,409.25 "/>
<rect x="129.17" y="87.25" style="fill:#495959;" width="126.4" height="322"/>
<rect x="129.17" y="312.44" style="fill:#FFFFFF;" width="253.67" height="96.81"/>
<g>
	<rect x="255.57" y="312.44" style="fill:#F0F0F0;" width="127.26" height="96.81"/>
	<polygon style="fill:#F0F0F0;" points="325.888,144.195 382.833,144.195 325.887,87.25 	"/>
</g>
<g>
	<path style="fill:#495959;" d="M219.846,342.939v26.775c0,2.324-0.099,4.3-0.296,5.927c-0.198,1.627-0.645,3.277-1.342,4.95
		c-1.163,2.813-3.08,5.003-5.753,6.572s-5.926,2.353-9.762,2.353c-3.463,0-6.351-0.546-8.663-1.639
		c-2.313-1.092-4.179-2.859-5.596-5.299c-0.744-1.301-1.349-2.801-1.813-4.497c-0.466-1.696-0.697-3.312-0.697-4.846
		c0-1.627,0.453-2.87,1.359-3.73c0.907-0.86,2.068-1.29,3.486-1.29c1.371,0,2.405,0.396,3.103,1.185
		c0.697,0.79,1.232,2.022,1.604,3.696c0.396,1.79,0.791,3.219,1.186,4.288s1.058,1.987,1.987,2.754s2.255,1.15,3.975,1.15
		c4.579,0,6.868-3.358,6.868-10.075v-28.274c0-2.092,0.459-3.661,1.377-4.707s2.167-1.569,3.748-1.569
		c1.604,0,2.876,0.523,3.817,1.569C219.375,339.279,219.846,340.848,219.846,342.939z"/>
	<path style="fill:#495959;" d="M250.909,368.738h-9.482v14.468c0,2.069-0.488,3.638-1.464,4.707
		c-0.977,1.069-2.209,1.604-3.696,1.604c-1.558,0-2.812-0.529-3.765-1.586s-1.43-2.609-1.43-4.654v-39.395
		c0-2.278,0.523-3.905,1.568-4.881c1.047-0.976,2.708-1.464,4.986-1.464h13.282c3.928,0,6.949,0.302,9.064,0.906
		c2.092,0.581,3.898,1.546,5.421,2.894c1.522,1.348,2.679,2.998,3.47,4.95c0.789,1.952,1.185,4.149,1.185,6.589
		c0,5.207-1.604,9.152-4.811,11.836C262.03,367.396,257.254,368.738,250.909,368.738z M248.399,345.31h-6.973v15.619h6.973
		c2.44,0,4.479-0.256,6.118-0.767c1.639-0.511,2.888-1.348,3.748-2.51c0.859-1.162,1.29-2.685,1.29-4.567
		c0-2.254-0.663-4.09-1.987-5.508C256.08,346.066,253.023,345.31,248.399,345.31z"/>
</g>
<g>
	<path style="fill:#3F4A4A;" d="M268.864,346.286c-0.791-1.952-1.947-3.602-3.47-4.95c-1.522-1.348-3.329-2.313-5.421-2.894
		c-1.181-0.337-2.656-0.577-4.402-0.726v8.622c0.83,0.334,1.507,0.741,1.997,1.238c1.324,1.418,1.987,3.254,1.987,5.508
		c0,1.883-0.431,3.405-1.29,4.567c-0.664,0.897-1.566,1.596-2.694,2.105v8.699c4.074-0.519,7.3-1.764,9.667-3.744
		c3.207-2.684,4.811-6.629,4.811-11.836C270.049,350.435,269.653,348.239,268.864,346.286z"/>
	<path style="fill:#3F4A4A;" d="M325.377,367.867v9.796c0,1.302-0.128,2.342-0.384,3.12c-0.256,0.779-0.727,1.482-1.412,2.109
		c-0.686,0.628-1.563,1.232-2.632,1.813c-3.091,1.673-6.066,2.894-8.925,3.661c-2.858,0.767-5.974,1.15-9.344,1.15
		c-3.928,0-7.507-0.605-10.737-1.813c-3.23-1.208-5.985-2.963-8.263-5.264s-4.026-5.09-5.247-8.367
		c-1.22-3.277-1.83-6.938-1.83-10.982c0-3.974,0.593-7.612,1.778-10.912c1.185-3.3,2.928-6.101,5.229-8.402s5.102-4.062,8.401-5.282
		s7.043-1.83,11.227-1.83c3.439,0,6.484,0.459,9.134,1.377c2.649,0.918,4.799,2.074,6.449,3.469s2.894,2.871,3.73,4.427
		c0.837,1.557,1.255,2.94,1.255,4.149c0,1.302-0.482,2.412-1.446,3.329c-0.965,0.918-2.121,1.377-3.469,1.377
		c-0.744,0-1.459-0.174-2.145-0.523s-1.261-0.837-1.726-1.464c-1.278-1.999-2.359-3.509-3.242-4.532
		c-0.884-1.022-2.074-1.883-3.573-2.58s-3.411-1.046-5.735-1.046c-2.394,0-4.532,0.413-6.415,1.238
		c-1.882,0.825-3.492,2.022-4.828,3.591c-1.337,1.569-2.359,3.492-3.068,5.77c-0.709,2.278-1.063,4.8-1.063,7.565
		c0,5.996,1.377,10.61,4.131,13.841c2.754,3.231,6.595,4.846,11.522,4.846c2.394,0,4.642-0.314,6.746-0.941
		c2.103-0.628,4.235-1.522,6.397-2.685v-8.297h-8.019c-1.93,0-3.388-0.29-4.376-0.872c-0.988-0.581-1.481-1.569-1.481-2.963
		c0-1.138,0.412-2.08,1.237-2.824c0.825-0.743,1.947-1.115,3.364-1.115h11.749c1.441,0,2.661,0.128,3.661,0.383
		c0.999,0.256,1.807,0.825,2.423,1.708C325.068,364.776,325.377,366.101,325.377,367.867z"/>
</g>
<polygon style="fill:#6861FF;" points="129.167,312.443 231.06,202.302 268.558,241 325.887,181 382.833,241 382.833,312.443 "/>
<polygon style="fill:#5C5CE5;" points="382.833,241 325.887,181 268.558,241 255.571,227.598 255.571,312.443 382.833,312.443 "/>
<circle style="fill:#FFEC00;" cx="199.61" cy="154.76" r="39.04"/>
<path style="fill:#F2D813;" d="M199.606,115.723c-0.195,0-0.388,0.012-0.582,0.015v78.056c0.194,0.003,0.387,0.015,0.582,0.015
	c21.563,0,39.043-17.48,39.043-39.043S221.169,115.723,199.606,115.723z"/>
<g>
</g>
<g>
</g>
<g>
</g>
<g>
</g>
<g>
</g>
<g>
</g>
<g>
</g>
<g>
</g>
<g>
</g>
<g>
</g>
<g>
</g>
<g>
</g>
<g>
</g>
<g>
</g>
<g>
</g>
</svg>
