<svg id="Capa_1" enable-background="new 0 0 511.998 511.998" height="512" viewBox="0 0 511.998 511.998" width="512" xmlns="http://www.w3.org/2000/svg"><g><g><path d="m246.194 388.562-238.708-209.8v325.256h248.513 248.513v-325.256l-238.709 209.8c-5.607 4.928-14.001 4.928-19.609 0z" fill="#eaf9fa"/></g><g><path d="m504.516 178.766v325.251h-20.132v-307.554z" fill="#dcf5f8"/></g><g><path d="m255.999 55.18-248.513 123.582 238.709 209.8c5.607 4.928 14.002 4.928 19.609 0l238.709-209.8z" fill="#d4f2f6"/></g><g><path d="m504.516 178.766-16.319 14.343-254.785-126.689 22.587-11.238z" fill="#a6e7f0"/></g><g><path d="m434.915 239.931v-169.866l-54.73-62.084h-291.564c-6.372 0-11.538 5.166-11.538 11.538v220.412l169.109 148.629c5.609 4.929 14.005 4.929 19.613 0z" fill="#faf7f7"/></g><g><path d="m434.918 70.063v169.867l-19.962 17.546v-209.82l-.838-1.188z" fill="#ede1dd"/></g><g><circle cx="255.999" cy="178.762" fill="#ade194" r="97.657"/></g><g><path d="m353.653 178.766c0 53.927-43.717 97.654-97.654 97.654-20.661 0-39.814-6.408-55.584-17.357 11.728 4.99 24.633 7.745 38.187 7.745 53.927 0 97.654-43.717 97.654-97.654 0-33.297-16.658-62.701-42.11-80.317 34.984 14.852 59.507 49.526 59.507 89.929z" fill="#97da7b"/></g><g><g><path d="m242.374 223.753c-4.116 0-8.079-1.598-11.048-4.467l-26.475-25.588c-6.312-6.102-6.484-16.166-.383-22.479 6.101-6.312 16.164-6.487 22.48-.383l14.78 14.285 42.69-46.236c5.955-6.451 16.013-6.852 22.465-.896 6.45 5.956 6.852 16.014.895 22.465l-53.723 58.187c-2.902 3.144-6.95 4.985-11.228 5.107-.151.003-.302.005-.453.005z" fill="#fee45a"/></g></g><g><g><path d="m307.78 160.451-53.728 58.189c-2.904 3.144-6.947 4.981-11.229 5.11h-.449c-4.112 0-8.085-1.597-11.049-4.462l-5.669-5.48c1.058.21 2.136.319 3.224.319.16 0 .329 0 .489-.01 4.551-.13 8.863-2.086 11.957-5.44l57.251-62.002c2.954-3.204 4.442-7.246 4.491-11.298 1.358.659 2.645 1.527 3.813 2.605 6.449 5.961 6.858 16.022.899 22.469z" fill="#fed402"/></g></g><g><path d="m380.185 7.981v52.101c0 5.514 4.47 9.983 9.983 9.983h44.747z" fill="#e1d3ce"/></g><g><path d="m247.865 346.713-240.379 157.305h248.513 248.513l-240.379-157.305c-4.941-3.234-11.327-3.234-16.268 0z" fill="#d4f2f6"/></g><g><path d="m504.516 504.017h-33.816l-230.96-151.142c-.22-.14-.439-.279-.669-.409l8.793-5.749c4.941-3.234 11.328-3.234 16.269 0z" fill="#a6e7f0"/></g><g><path d="m361.142 178.762c0-57.975-47.167-105.143-105.143-105.143s-105.143 47.167-105.143 105.143 47.167 105.143 105.143 105.143 105.143-47.168 105.143-105.143zm-195.314 0c0-49.721 40.451-90.171 90.171-90.171s90.171 40.45 90.171 90.171-40.451 90.171-90.171 90.171-90.171-40.451-90.171-90.171z"/><path d="m259.555 223.718 8.568-9.282c2.803-3.039 2.612-7.774-.427-10.578-3.039-2.802-7.774-2.611-10.578.427l-8.564 9.277c-1.525 1.652-3.69 2.637-5.968 2.702l-.212.003c-2.193 0-4.268-.839-5.845-2.364l-26.475-25.588c-3.335-3.223-3.426-8.559-.203-11.894 3.224-3.334 8.561-3.425 11.896-.203l14.78 14.284c1.449 1.401 3.389 2.158 5.415 2.101 2.014-.058 3.92-.924 5.287-2.405l42.691-46.237c1.523-1.65 3.599-2.609 5.844-2.698 2.249-.096 4.391.7 6.041 2.223 3.408 3.147 3.621 8.48.474 11.888l-21.481 23.265c-2.805 3.038-2.616 7.773.422 10.578 3.038 2.804 7.774 2.615 10.578-.422l21.481-23.265c8.747-9.472 8.156-24.296-1.317-33.044-4.589-4.237-10.553-6.43-16.794-6.184-6.242.249-12.012 2.913-16.248 7.502l-37.495 40.609-9.273-8.961c-9.271-8.961-24.104-8.706-33.064.563s-8.708 24.103.563 33.063l26.474 25.588c4.383 4.237 10.154 6.57 16.251 6.57.232 0 .463-.003.666-.01 6.253-.175 12.272-2.913 16.513-7.508z"/><path d="m511.991 178.613c-.021-1.071-.337-2.376-.839-3.331-.424-.809-1.007-1.526-1.692-2.13-.479-.422-1.043-.809-1.615-1.094-.142-.07-65.445-32.544-65.445-32.544v-69.449c0-1.823-.665-3.583-1.87-4.951l-54.73-62.083c-1.421-1.611-3.466-2.535-5.615-2.535h-291.564c-10.49 0-19.024 8.534-19.024 19.023v119.995s-65.496 32.575-65.522 32.589c-1.037.533-2.046 1.405-2.722 2.373-.83 1.188-1.313 2.674-1.345 4.118-.001.049-.008 185.959-.008 185.959 0 4.135 3.352 7.486 7.486 7.486s7.486-3.351 7.486-7.486v-169.246s57.163 50.241 57.17 50.247l135.138 118.772-192.309 125.846v-91.33c0-4.135-3.352-7.486-7.486-7.486s-7.485 3.352-7.485 7.486v105.175c0 4.007 3.442 7.485 7.486 7.485h4.787s491.818 0 492.24 0c1.058 0 2.113-.259 3.075-.693.636-.287 1.237-.653 1.771-1.103 1.657-1.394 2.64-3.532 2.64-5.69-.001.001-.007-325.361-.008-325.403zm-442.394 44.772-48.794-42.885 48.795-24.265v67.15zm372.804-67.15 48.795 24.265-48.795 42.886zm-54.73-128.442 23.296 26.427 7.369 8.36h-28.168c-1.377 0-2.498-1.121-2.498-2.498v-32.289zm-303.102 208.751v-217.025c0-2.234 1.818-4.052 4.052-4.052h284.078v44.614c0 9.633 7.837 17.47 17.469 17.47h37.261v158.992l-115.42 101.443-20.29 17.833-23.486-15.369c-7.43-4.863-17.034-4.865-24.467 0l-23.486 15.369zm-51.973 259.987 219.368-143.555c2.451-1.604 5.618-1.604 8.07 0l219.369 143.555zm464.431-6.359-192.308-125.846 5.496-4.83 186.813-164.189v294.865z"/></g></g></svg>