<svg id="filled_outline" enable-background="new 0 0 512 512" height="512" viewBox="0 0 512 512" width="512" xmlns="http://www.w3.org/2000/svg"><path d="m208 288h40c17.6700134 0 32-14.3299866 32-32v-55.7899933-.2100067" fill="none"/><path d="m320 312h-128l16-16v-68.7202148c0-7.199707 2.8798828-14.159668 8-19.2797852s12.0800781-8 19.2797852-8h12.7202148l-16-24h48l-16 24h12.7202148c7.199707 0 14.159668 2.8798828 19.2797852 8s8 12.0800781 8 19.2797852v68.7202148z" fill="#fbe2bc"/><path d="m320 312h-128l16-16h40c17.6699219 0 32-14.3300781 32-32v-63.7900391c6.0100098.7199707 11.6599121 3.4499512 16 7.7900391 5.1201172 5.1201172 8 12.0800781 8 19.2800293v68.7199707z" fill="#f9ce95"/><path d="m280 176-32 24h16z" fill="#f9ce95"/><path d="m272 223.9433594c-2.0332031 0-4.0654297-.7753906-5.6171875-2.3261719l-10.3828125-10.3837891-10.3828125 10.3837891c-3.1035156 3.1015625-8.1308594 3.1015625-11.234375 0-3.1015625-3.1025391-3.1015625-8.1318359 0-11.234375l16-16c3.1035156-3.1015625 8.1308594-3.1015625 11.234375 0l16 16c3.1015625 3.1025391 3.1015625 8.1318359 0 11.234375-1.5517578 1.5507813-3.5839844 2.3261719-5.6171875 2.3261719z" fill="#683b11"/><path d="m260 256h-8c-2.2060547 0-4-1.7944336-4-4s1.7939453-4 4-4h20c4.4179688 0 8-3.581543 8-8s-3.5820313-8-8-8h-8c0-4.418457-3.5820313-8-8-8s-8 3.581543-8 8v.4030762c-9.1181641 1.8583984-16 9.9387207-16 19.5969238 0 11.027832 8.9716797 20 20 20h8c2.2060547 0 4 1.7944336 4 4s-1.7939453 4-4 4h-20c-4.4179688 0-8 3.581543-8 8s3.5820313 8 8 8h8c0 4.418457 3.5820313 8 8 8s8-3.581543 8-8v-.4030762c9.1181641-1.8583984 16-9.9387207 16-19.5969238 0-11.027832-8.9716797-20-20-20z" fill="#387f29"/><path d="m8 336c-4.418457 0-8-3.5820313-8-8v-16c0-4.4179688 3.581543-8 8-8h152v-36.6865234l-10.3432617 10.34375c-3.1240234 3.1230469-8.1894531 3.1230469-11.3134766 0l-24-24c-3.1245117-3.125-3.1245117-8.1894531 0-11.3144531l136-136c3.1240234-3.1230469 8.1894531-3.1230469 11.3134766 0l42.3432617 42.3437499v-12.6865234c0-4.4179688 3.581543-8 8-8h32c4.418457 0 8 3.5820313 8 8v60.6865234l45.6567383 45.65625c3.1245117 3.125 3.1245117 8.1894531 0 11.3144531l-24 24c-3.1240234 3.1230469-8.1894531 3.1230469-11.3134766 0l-10.3432617-10.3437499v36.6865234h80c4.418457 0 8 3.5820313 8 8s-3.581543 8-8 8h-88c-4.418457 0-8-3.5820313-8-8v-64c0-3.2353516 1.9492188-6.1523438 4.9384766-7.390625 2.9907227-1.2382813 6.4311523-.5537109 8.7182617 1.7333984l18.3432617 18.34375 12.6865234-12.6865234-42.3432617-42.3427734c-1.5004883-1.5009766-2.3432617-3.5351563-2.3432617-5.6572266v-56h-16v24c0 3.2353516-1.9492188 6.1523438-4.9384766 7.390625-2.9887695 1.2402344-6.4306641.5546875-8.7182617-1.7333984l-50.3432617-50.34375-124.6865234 124.6865234 12.6865234 12.6865234 18.3432617-18.34375c2.2880859-2.2880859 5.7280273-2.9726563 8.7182617-1.7333984 2.9892579 1.2382813 4.9384766 4.1552734 4.9384766 7.390625v64c0 4.4179688-3.581543 8-8 8h-152v8c0 4.4179688-3.581543 8-8 8z" fill="#00a8e7"/><path d="m97.0444336 174.9560547c-2.0473633 0-4.0942383-.78125-5.65625-2.3427734-3.1245117-3.1240234-3.125-8.1894531-.0009766-11.3134766l2.3911133-2.3916016c3.1240234-3.1240234 8.1894531-3.1240234 11.3134766-.0009766 3.1245117 3.1240234 3.125 8.1894531.0009766 11.3134766l-2.3911133 2.3916016c-1.5620118 1.5625-3.609375 2.34375-5.6572266 2.34375zm26.3041992-26.3046875c-2.0473633 0-4.0942383-.78125-5.65625-2.3427734-3.1245117-3.1240234-3.125-8.1894531-.0009766-11.3134766l2.3911133-2.3916016c3.1240234-3.125 8.1894531-3.1240234 11.3134766-.0009766 3.1245117 3.1240234 3.125 8.1894531.0009766 11.3134766l-2.3911133 2.3916016c-1.5620117 1.5625-3.609375 2.34375-5.6572266 2.34375zm26.303711-26.3037109c-2.0473633 0-4.0947266-.78125-5.6567383-2.3427734-3.1245117-3.125-3.1245117-8.1894531 0-11.3144531l2.3916016-2.3916016c3.1240234-3.1230469 8.1894531-3.1230469 11.3134766 0 3.1245117 3.125 3.1245117 8.1894531 0 11.3144531l-2.3916016 2.3916016c-1.5620118 1.5615234-3.6093751 2.3427734-5.6567383 2.3427734zm26.3041992-26.3046875c-2.0478516 0-4.0952148-.78125-5.6572266-2.34375-3.1240234-3.1240234-3.1235352-8.1894531.0009766-11.3134766l2.3911133-2.390625c3.1254883-3.1230469 8.190918-3.1220703 11.3134766.0009766 3.1240234 3.1240234 3.1235352 8.1894531-.0009766 11.3134766l-2.3911133 2.390625c-1.5620117 1.5615234-3.609375 2.3427734-5.65625 2.3427734zm26.3041992-26.303711c-2.0473633 0-4.0942383-.78125-5.65625-2.3427734-3.1245117-3.1240234-3.125-8.1894531-.0009766-11.3134766l2.3911133-2.3916016c3.1240234-3.1240234 8.1894531-3.1240234 11.3134766-.0009766 3.1245117 3.1240234 3.125 8.1894531.0009766 11.3134766l-2.3911133 2.3916016c-1.5620118 1.5625-3.609375 2.34375-5.6572266 2.34375zm26.3041992-26.3037109c-2.0473633 0-4.0942383-.78125-5.65625-2.3427734-3.1245117-3.1240234-3.125-8.1894531-.0009766-11.3134766l2.3911133-2.3916016c3.1240234-3.1240234 8.1894531-3.1240234 11.3134766-.0009766 3.1245117 3.1240234 3.125 8.1894531.0009766 11.3134766l-2.3911133 2.3916016c-1.5620117 1.5625-3.609375 2.34375-5.6572266 2.34375z" fill="#e22526"/><path d="m72 200c-2.0483398 0-4.0957031-.78125-5.6582031-2.3447266-3.1235352-3.125-3.1220703-8.1894531.0024414-11.3134766l1.1313477-1.1308594c3.1245117-3.125 8.1894531-3.1240234 11.3139648.0029297 3.1235352 3.125 3.1220703 8.1894531-.0024414 11.3134766l-1.1313477 1.1308594c-1.5620117 1.5615235-3.6088867 2.3417969-5.6557617 2.3417969z" fill="#e22526"/><path d="m432.1401367 192.1396484c-2.0473633 0-4.0942383-.78125-5.65625-2.3427734l-2.2729492-2.2724609c-3.1245117-3.1240234-3.125-8.1884766-.0009766-11.3134766 3.1240234-3.1240234 8.1894531-3.1240234 11.3134766-.0009766l2.2729492 2.2724609c3.1245117 3.1240234 3.125 8.1884766.0009766 11.3134766-1.5620117 1.5625-3.609375 2.34375-5.6572266 2.34375zm-25.0009765-25.0009765c-2.0478516 0-4.0952148-.78125-5.6572266-2.34375l-2.2734375-2.2734375c-3.1235352-3.125-3.1230469-8.1894531.0014648-11.3134766 3.125-3.1230469 8.1899414-3.1230469 11.3139648.0009766l2.2729492 2.2734375c3.1235352 3.125 3.1230469 8.1894531-.0014648 11.3134766-1.5620117 1.5615234-3.6093749 2.3427734-5.6562499 2.3427734zm-25.0014649-25.0009766c-2.0478516 0-4.0952148-.78125-5.6572266-2.34375l-2.2729492-2.2734375c-3.1240234-3.125-3.1235352-8.1894531.0009766-11.3134766 3.125-3.1230469 8.1904297-3.1230469 11.3134766.0009766l2.2729492 2.2734375c3.1240234 3.125 3.1235352 8.1894531-.0009766 11.3134766-1.5620117 1.5615234-3.609375 2.3427734-5.65625 2.3427734zm-25.0009765-25.0019531c-2.0473633 0-4.0942383-.78125-5.65625-2.3427734l-2.2729492-2.2724609c-3.1245117-3.1240234-3.125-8.1884766-.0009766-11.3134766 3.1230469-3.125 8.1884766-3.1240234 11.3134766-.0009766l2.2729492 2.2724609c3.1245117 3.1240234 3.125 8.1884766.0009766 11.3134766-1.5620118 1.5625-3.6093751 2.34375-5.6572266 2.34375zm-25.0014649-25.0009766c-2.0473633 0-4.0942383-.78125-5.65625-2.3427734l-2.2729492-2.2724609c-3.1245117-3.1240234-3.125-8.1884766-.0009766-11.3134766 3.1245117-3.1240234 8.1899414-3.1240234 11.3134766-.0009766l2.2729492 2.2724609c3.1245117 3.1240234 3.125 8.1884766.0009766 11.3134766-1.5620117 1.5625-3.609375 2.34375-5.6572266 2.34375zm-25.0014648-25.0009765c-2.0483398 0-4.0957031-.78125-5.6582031-2.3447266l-2.2724609-2.2734375c-3.1235352-3.1240234-3.1220703-8.1894531.0024414-11.3134766 3.1245117-3.125 8.1894531-3.1230469 11.3139648.0029297l2.2724609 2.2734375c3.1235352 3.1240234 3.1220703 8.1894531-.0024414 11.3134766-1.5620117 1.5615234-3.6088867 2.3417969-5.6557617 2.3417969zm-25.0009766-25.0019532c-2.0473633 0-4.0942383-.78125-5.65625-2.3427734l-2.2729492-2.2724609c-3.1245117-3.1240234-3.125-8.1884766-.0009766-11.3134766 3.1240234-3.1240234 8.1894531-3.1230469 11.3134766-.0009766l2.2729492 2.2724609c3.1245117 3.1240234 3.125 8.1884766.0009766 11.3134766-1.5620118 1.5625-3.609375 2.34375-5.6572266 2.34375z" fill="#e22526"/><path d="m456 216c-2.046875 0-4.09375-.7802734-5.6557617-2.3417969l-1.1313477-1.1308594c-3.1245117-3.1240234-3.1259766-8.1884766-.0024414-11.3134766 3.1240234-3.1259766 8.1889648-3.1269531 11.3139648-.0029297l1.1313477 1.1308594c3.1245117 3.1240234 3.1259766 8.1884766.0024414 11.3134766-1.5625 1.5634766-3.6103515 2.3447266-5.6582031 2.3447266z" fill="#e22526"/><path d="m464.0000305 320h-40.0000305v-40.0000305c0-22.0913696 17.9085999-39.9999695 39.9999695-39.9999695h.000061c22.0913696 0 39.9999695 17.9085999 39.9999695 39.9999695v.000061c0 22.0913696-17.9085999 39.9999695-39.9999695 39.9999695z" fill="#ffec00"/><circle cx="464" cy="280" fill="#e22526" r="16"/><path d="m24 56h48v256h-48z" fill="#ffec00"/><path d="m40 88c0 4.4199219-3.5800781 8-8 8h-8v-16h8c4.4199219 0 8 3.5800781 8 8z" fill="#e22526"/><path d="m56 120c0 4.4199219-3.5800781 8-8 8h-24v-16h24c4.4199219 0 8 3.5800781 8 8z" fill="#e22526"/><path d="m40 152c0 4.4199219-3.5800781 8-8 8h-8v-16h8c4.4199219 0 8 3.5800781 8 8z" fill="#e22526"/><path d="m56 184c0 4.4199219-3.5800781 8-8 8h-24v-16h24c4.4199219 0 8 3.5800781 8 8z" fill="#e22526"/><path d="m40 216c0 4.4199219-3.5800781 8-8 8h-8v-16h8c4.4199219 0 8 3.5800781 8 8z" fill="#e22526"/><path d="m56 248c0 4.4199219-3.5800781 8-8 8h-24v-16h24c4.4199219 0 8 3.5800781 8 8z" fill="#e22526"/><path d="m40 280c0 4.4199219-3.5800781 8-8 8h-8v-16h8c4.4199219 0 8 3.5800781 8 8z" fill="#e22526"/><path d="m192 344h128v160h-128z" fill="#ffec00"/><path d="m288 384h-64c-4.418457 0-8-3.5820313-8-8s3.581543-8 8-8h64c4.418457 0 8 3.5820313 8 8s-3.581543 8-8 8z" fill="#efeeef"/><path d="m160 400c-4.418457 0-8 3.5820313-8 8v8h-16c0-4.4179688-3.581543-8-8-8s-8 3.5820313-8 8h-16v-8c0-4.4179688-3.581543-8-8-8s-8 3.5820313-8 8v8h-16c0-4.4179688-3.581543-8-8-8s-8 3.5820313-8 8h-16v-8c0-4.4179688-3.581543-8-8-8s-8 3.5820313-8 8v16c0 4.4179688 3.581543 8 8 8h128c4.418457 0 8-3.5820313 8-8v-16c0-4.4179687-3.581543-8-8-8z" fill="#e22526"/><path d="m480 400c-4.418457 0-8 3.5820313-8 8v8h-16c0-4.4179688-3.581543-8-8-8s-8 3.5820313-8 8h-16v-8c0-4.4179688-3.581543-8-8-8s-8 3.5820313-8 8v8h-16c0-4.4179688-3.581543-8-8-8s-8 3.5820313-8 8h-16v-8c0-4.4179688-3.581543-8-8-8s-8 3.5820313-8 8v16c0 4.4179688 3.581543 8 8 8h128c4.418457 0 8-3.5820313 8-8v-16c0-4.4179687-3.581543-8-8-8z" fill="#e22526"/><g fill="#efeeef"><circle cx="224" cy="408" r="8"/><circle cx="224" cy="440" r="8"/><circle cx="224" cy="472" r="8"/><circle cx="256" cy="408" r="8"/><circle cx="256" cy="440" r="8"/><circle cx="256" cy="472" r="8"/><circle cx="288" cy="408" r="8"/><circle cx="288" cy="440" r="8"/><circle cx="288" cy="472" r="8"/></g><circle cx="256" cy="8" fill="#e22526" r="8"/><path d="m254.8686523 17.1308594c.378418 0 .7558594-.0358887 1.1313477-.0891113.3754883.0532227.7529297.0891113 1.1313477.0891113 2.0478516 0 4.0957031-.78125 5.6582031-2.3447266 3.1235352-3.125 3.1220703-8.1894531-.0024414-11.3134766l-1.1313477-1.1308594c-.3774414-.3774414-.7841797-.706543-1.2114258-.9926758-.0141602-.0095215-.0272217-.0212402-.0415039-.0305176-.1444092-.095459-.2946777-.1774902-.4437256-.2626953-.0802002-.0456543-.1575928-.0981445-.2388916-.1411133-.0705566-.0368652-.1442871-.0651855-.2155762-.1000977-2.9836426-1.4560547-6.6813965-.9523926-9.1604004 1.5270996l-1.1313477 1.1308594c-3.1245117 3.1240234-3.1259766 8.1884766-.0024414 11.3134766 1.5625001 1.5634767 3.6098634 2.3447267 5.6582032 2.3447267z"/><path d="m97.0444336 174.9560547c2.0478516 0 4.0952148-.78125 5.6572266-2.34375l2.3911133-2.3916016c3.1240234-3.1240234 3.1235352-8.1894531-.0009766-11.3134766-3.1240234-3.1230469-8.1894531-3.1230469-11.3134766.0009766l-2.3911133 2.3916016c-3.1240234 3.1240234-3.1235352 8.1894531.0009766 11.3134766 1.5620117 1.5615234 3.6088867 2.3427734 5.65625 2.3427734z"/><path d="m228.5649414 43.4355469c2.0478516 0 4.0952148-.78125 5.6572266-2.34375l2.3911133-2.3916016c3.1240234-3.1240234 3.1235352-8.1894531-.0009766-11.3134766-3.1240234-3.1230469-8.1894531-3.1230469-11.3134766.0009766l-2.3911133 2.3916016c-3.1240234 3.1240234-3.1235352 8.1894531.0009766 11.3134766 1.5620117 1.5615234 3.6088867 2.3427734 5.65625 2.3427734z"/><path d="m202.2607422 69.7392578c2.0478516 0 4.0952148-.78125 5.6572266-2.34375l2.3911133-2.3916016c3.1240234-3.1240234 3.1235352-8.1894531-.0009766-11.3134766-3.1240234-3.1230469-8.1894531-3.1230469-11.3134766.0009766l-2.3911133 2.3916016c-3.1240234 3.1240234-3.1235352 8.1894531.0009766 11.3134766 1.5620117 1.5615234 3.6088867 2.3427734 5.65625 2.3427734z"/><path d="m123.3486328 148.6513672c2.0478516 0 4.0952148-.78125 5.6572266-2.34375l2.3911133-2.3916016c3.1240234-3.1240234 3.1235352-8.1894531-.0009766-11.3134766-3.1240234-3.1230469-8.1894531-3.1240234-11.3134766.0009766l-2.3911133 2.3916016c-3.1240234 3.1240234-3.1235352 8.1894531.0009766 11.3134766 1.5620117 1.5615234 3.6088867 2.3427734 5.65625 2.3427734z"/><path d="m175.956543 96.0429688c2.046875 0 4.0942383-.78125 5.65625-2.3427734l2.3911133-2.390625c3.1245117-3.1240234 3.125-8.1894531.0009766-11.3134766-3.1225586-3.1230469-8.1879883-3.1240234-11.3134766-.0009766l-2.3911133 2.390625c-3.1245117 3.1240234-3.125 8.1894531-.0009766 11.3134766 1.5620117 1.5625 3.609375 2.34375 5.6572266 2.34375z"/><path d="m149.6523438 122.3476563c2.0473633 0 4.0947266-.78125 5.6567383-2.3427734l2.3916016-2.3916016c3.1245117-3.125 3.1245117-8.1894531 0-11.3144531-3.1240234-3.1230469-8.1894531-3.1230469-11.3134766 0l-2.3916016 2.3916016c-3.1245117 3.125-3.1245117 8.1894531 0 11.3144531 1.5620117 1.5615234 3.609375 2.3427734 5.6567383 2.3427734z"/><path d="m351.4804688 114.7929688c1.5620117 1.5615234 3.6088867 2.3427734 5.65625 2.3427734 2.0478516 0 4.0952148-.78125 5.6572266-2.34375 3.1240234-3.125 3.1235352-8.1894531-.0009766-11.3134766l-2.2729492-2.2724609c-3.125-3.1230469-8.1904297-3.1240234-11.3134766.0009766-3.1240234 3.125-3.1235352 8.1894531.0009766 11.3134766z"/><path d="m326.4790039 89.7919922c1.5620117 1.5615234 3.6088867 2.3427734 5.65625 2.3427734 2.0478516 0 4.0952148-.78125 5.6572266-2.34375 3.1240234-3.125 3.1235352-8.1894531-.0009766-11.3134766l-2.2729492-2.2724609c-3.1235352-3.1230469-8.1889648-3.1230469-11.3134766.0009766-3.1240234 3.125-3.1235352 8.1894531.0009766 11.3134766z"/><path d="m276.4765625 39.7890625c1.5620117 1.5615234 3.6088867 2.3427734 5.65625 2.3427734 2.0478516 0 4.0952148-.78125 5.6572266-2.34375 3.1240234-3.125 3.1235352-8.1894531-.0009766-11.3134766l-2.2729492-2.2724609c-3.1240234-3.1220703-8.1894531-3.1230469-11.3134766.0009766-3.1240234 3.125-3.1235352 8.1894531.0009766 11.3134766z"/><path d="m301.4755859 64.7890625c1.5625 1.5634766 3.6098633 2.3447266 5.6582031 2.3447266 2.046875 0 4.09375-.7802734 5.6557617-2.3417969 3.1245117-3.1240234 3.1259766-8.1894531.0024414-11.3134766l-2.2724609-2.2734375c-3.1245117-3.1259766-8.1894531-3.1279297-11.3139648-.0029297-3.1245117 3.1240234-3.1259766 8.1894531-.0024414 11.3134766z"/><path d="m376.4804688 139.7939453c1.5620117 1.5625 3.609375 2.34375 5.6572266 2.34375 2.046875 0 4.0942383-.78125 5.65625-2.3427734 3.1245117-3.1240234 3.125-8.1884766.0009766-11.3134766l-2.2729492-2.2734375c-3.1230469-3.1240234-8.1884766-3.1240234-11.3134766-.0009766-3.1245117 3.1240234-3.125 8.1884766-.0009766 11.3134766z"/><path d="m401.4819336 164.7949219c1.5620117 1.5625 3.609375 2.34375 5.6572266 2.34375 2.046875 0 4.0942383-.78125 5.65625-2.3427734 3.1245117-3.1240234 3.125-8.1884766.0014648-11.3134766l-2.2729492-2.2734375c-3.1240234-3.1240234-8.1889648-3.1240234-11.3139648-.0009766-3.1245117 3.1240234-3.125 8.1884766-.0014648 11.3134766z"/><path d="m426.4838867 189.796875c1.5620117 1.5615234 3.6088867 2.3427734 5.65625 2.3427734 2.0478516 0 4.0952148-.78125 5.6572266-2.34375 3.1240234-3.125 3.1235352-8.1894531-.0009766-11.3134766l-2.2729492-2.2724609c-3.1240234-3.1230469-8.1894531-3.1230469-11.3134766.0009766-3.1240234 3.125-3.1235352 8.1894531.0009766 11.3134766z"/><path d="m450.3442383 213.6582031c1.5620117 1.5615235 3.6088867 2.3417969 5.6557617 2.3417969 2.0478516 0 4.0957031-.78125 5.6582031-2.3447266 3.1235352-3.125 3.1220703-8.1894531-.0024414-11.3134766l-1.1313477-1.1308594c-3.125-3.1240234-8.1899414-3.1230469-11.3139648.0029297-3.1235352 3.125-3.1220703 8.1894531.0024414 11.3134766z"/><path d="m464 224c-26.4672852 0-48 21.5322266-48 48v32h-64v-36.6865234l10.3432617 10.34375c3.1240234 3.1230469 8.1894531 3.1230469 11.3134766 0l24-24c3.1245117-3.125 3.1245117-8.1894531 0-11.3144531l-45.6567383-45.6562501v-60.6865234c0-4.4179688-3.581543-8-8-8h-32c-4.418457 0-8 3.5820313-8 8v12.6865234l-42.3432617-42.34375c-3.1240234-3.1230469-8.1894531-3.1230469-11.3134766 0l-136 136c-3.1245117 3.125-3.1245117 8.1894531 0 11.3144531l24 24c3.1240234 3.1230469 8.1894531 3.1230469 11.3134766 0l10.3432617-10.3437499v36.6865234h-80v-248c0-4.4179688-3.581543-8-8-8h-48c-4.418457 0-8 3.5820313-8 8v248h-8c-4.418457 0-8 3.5820313-8 8v16c0 4.4179688 3.581543 8 8 8s8-3.5820313 8-8v-8h152c4.418457 0 8-3.5820313 8-8v-64c0-3.2353516-1.9492188-6.1523438-4.9384766-7.390625-2.9902344-1.2392578-6.4301758-.5546875-8.7182617 1.7333984l-18.3432617 18.34375-12.6865234-12.6865234 124.6865234-124.6860352 50.3432617 50.3432617c2.2875977 2.2880859 5.7294922 2.9736328 8.7182617 1.7333984 2.9892579-1.2382811 4.9384766-4.1552733 4.9384766-7.3906249v-24h16v56c0 2.1220703.8427734 4.15625 2.3432617 5.6572266l42.3427735 42.3427734-12.6860352 12.6865234-18.3432617-18.34375c-2.2871094-2.2871094-5.7275391-2.9716797-8.7182617-1.7333984-2.9892578 1.2382813-4.9384766 4.1552734-4.9384766 7.390625v64c0 4.4179688 3.581543 8 8 8h120c26.4672852 0 48-21.5322266 48-48s-21.5327148-48-48-48zm-432 80v-16c4.418457 0 8-3.5820313 8-8s-3.581543-8-8-8v-16h16c4.418457 0 8-3.5820313 8-8s-3.581543-8-8-8h-16v-16c4.418457 0 8-3.5820313 8-8s-3.581543-8-8-8v-16h16c4.418457 0 8-3.5820313 8-8s-3.581543-8-8-8h-16v-16c4.418457 0 8-3.5820313 8-8s-3.581543-8-8-8v-16h16c4.418457 0 8-3.5820313 8-8s-3.581543-8-8-8h-16v-16c4.418457 0 8-3.5820313 8-8s-3.581543-8-8-8v-16h32v240zm432 0h-32v-32c0-17.6445313 14.3549805-32 32-32s32 14.3554688 32 32-14.3549805 32-32 32z"/><path d="m464 248c-13.2338867 0-24 10.7666016-24 24s10.7661133 24 24 24 24-10.7666016 24-24-10.7661133-24-24-24zm0 32c-4.4111328 0-8-3.5888672-8-8s3.5888672-8 8-8 8 3.5888672 8 8-3.5888672 8-8 8z"/><path d="m160 400c-4.418457 0-8 3.5820313-8 8v8h-16c0-4.4179688-3.581543-8-8-8s-8 3.5820313-8 8h-16v-8c0-4.4179688-3.581543-8-8-8s-8 3.5820313-8 8v8h-16c0-4.4179688-3.581543-8-8-8s-8 3.5820313-8 8h-16v-8c0-4.4179688-3.581543-8-8-8s-8 3.5820313-8 8v16c0 4.4179688 3.581543 8 8 8h128c4.418457 0 8-3.5820313 8-8v-16c0-4.4179687-3.581543-8-8-8z"/><path d="m200 227.2792969v65.4072266l-13.6567383 13.65625c-2.2880859 2.2880859-2.9726563 5.7294922-1.734375 8.71875s4.1552735 4.9384765 7.3911133 4.9384765h128c3.2358398 0 6.152832-1.9492188 7.3911133-4.9384766s.5537109-6.4306641-1.734375-8.71875l-13.6567383-13.65625v-65.4072266c0-9.2744141-3.7700195-18.3632813-10.3432617-24.9365234-6.0566406-6.0566406-14.2490234-9.7333984-22.7548828-10.2734375l7.7543945-11.6318359c1.6367188-2.4550781 1.7890625-5.6113281.3969727-8.2119141-1.3920899-2.6015625-4.1030274-4.2255859-7.0532227-4.2255859h-48c-2.9501953 0-5.6611328 1.6240234-7.0532227 4.2255859-1.3920898 2.6005859-1.2397461 5.7568359.3969727 8.2119141l7.7543945 11.6318359c-8.5058594.5400391-16.6982422 4.2167969-22.7548828 10.2734375-6.5732422 6.5732422-10.3432617 15.6621094-10.3432617 24.9365235zm65.0517578-43.2792969-5.7988281 8.6987305c-2.0671387-.9199219-4.4387207-.9199219-6.5058594 0l-5.7988281-8.6987305zm-51.3950195 117.6572266c1.5004883-1.5009766 2.3432617-3.5351563 2.3432617-5.6572266v-68.7207031c0-5.0625 2.0620117-10.0273438 5.6567383-13.6220703 3.5952148-3.5957032 8.5605469-5.6572266 13.6230469-5.6572266h1.40625l-2.3427734 2.3427734c-3.1245117 3.125-3.1245117 8.1894531 0 11.3144531 3.1240234 3.1230469 8.1894531 3.1230469 11.3134766 0l10.3432616-10.3437499 10.3432617 10.34375c1.5620117 1.5615234 3.609375 2.3427734 5.6567383 2.3427734s4.0947266-.78125 5.6567383-2.3427734c3.1245117-3.125 3.1245117-8.1894531 0-11.3144531l-2.3427735-2.3427735h1.40625c5.0625 0 10.027832 2.0615234 13.6230469 5.6572266 3.5947266 3.5947265 5.6567383 8.5595703 5.6567383 13.6220703v68.7207031c0 2.1220703.8427734 4.15625 2.3432617 5.6572266l2.3432617 2.3427734h-44.6865234-44.6865234z"/><path d="m320 336h-128c-4.418457 0-8 3.5820313-8 8v160c0 4.4179688 3.581543 8 8 8h128c4.418457 0 8-3.5820313 8-8v-160c0-4.4179687-3.581543-8-8-8zm-8 160h-112v-144h112z"/><path d="m224 384h64c4.418457 0 8-3.5820313 8-8s-3.581543-8-8-8h-64c-4.418457 0-8 3.5820313-8 8s3.581543 8 8 8z"/><path d="m480 400c-4.418457 0-8 3.5820313-8 8v8h-16c0-4.4179688-3.581543-8-8-8s-8 3.5820313-8 8h-16v-8c0-4.4179688-3.581543-8-8-8s-8 3.5820313-8 8v8h-16c0-4.4179688-3.581543-8-8-8s-8 3.5820313-8 8h-16v-8c0-4.4179688-3.581543-8-8-8s-8 3.5820313-8 8v16c0 4.4179688 3.581543 8 8 8h128c4.418457 0 8-3.5820313 8-8v-16c0-4.4179687-3.581543-8-8-8z"/><path d="m264 296h8c4.418457 0 8-3.5820313 8-8v-24c0-4.4179688-3.581543-8-8-8h-24v-8h24c4.418457 0 8-3.5820313 8-8s-3.581543-8-8-8h-8c0-4.4179688-3.581543-8-8-8s-8 3.5820313-8 8h-8c-4.418457 0-8 3.5820313-8 8v24c0 4.4179688 3.581543 8 8 8h24v8h-24c-4.418457 0-8 3.5820313-8 8s3.581543 8 8 8h8c0 4.4179688 3.581543 8 8 8s8-3.5820312 8-8z"/><circle cx="224" cy="408" r="8"/><circle cx="256" cy="408" r="8"/><circle cx="288" cy="408" r="8"/><circle cx="224" cy="440" r="8"/><circle cx="256" cy="440" r="8"/><circle cx="288" cy="440" r="8"/><circle cx="224" cy="472" r="8"/><circle cx="256" cy="472" r="8"/><circle cx="288" cy="472" r="8"/></svg>