<svg id="Layer_1" enable-background="new 0 0 512 512" height="512" viewBox="0 0 512 512" width="512" xmlns="http://www.w3.org/2000/svg"><g><g><g><path d="m402.286 100.937-92.937-92.937h-252.444c-8.284 0-15 6.716-15 15v466c0 8.284 6.716 15 15 15h320.382c13.807 0 25-11.193 25-25v-378.063z" fill="#eef3f9"/><path d="m324.349 100.937h77.937l-92.937-92.937v77.937c0 8.284 6.716 15 15 15z" fill="#4a80aa"/><path d="m377.286 486h-320.381c-8.284 0-15-6.716-15-15v18c0 8.284 6.716 15 15 15h320.382c13.807 0 25-11.193 25-25v-18c-.001 13.807-11.193 25-25.001 25z" fill="#dae3ed"/><path d="m86.904 183.14h158.656v164.058h-158.656z" fill="#aadefd"/><path d="m245.56 183.14h55.863v164.058h-55.863z" fill="#d75950"/><path d="m301.423 183.14h55.863v164.058h-55.863z" fill="#f5de8e"/><path d="m86.904 329.198h158.656v18h-158.656z" fill="#96d3ef"/><path d="m245.56 329.198h55.863v18h-55.863z" fill="#ca4844"/><path d="m301.423 329.198h55.863v18h-55.863z" fill="#edd17a"/><g fill="#dae3ed"><path d="m309.349 85.937v18c0 8.284 6.716 15 15 15h77.937v-18h-77.937c-8.284 0-15-6.716-15-15z"/><path d=""/></g></g><g><circle cx="388.583" cy="422.488" fill="#f5de8e" r="81.512"/></g><path d="m388.583 486c-41.975 0-76.526-31.731-81.007-72.513-.325 2.957-.505 5.957-.505 9 0 45.018 36.494 81.513 81.512 81.513s81.513-36.494 81.513-81.513c0-3.043-.181-6.043-.505-9-4.482 40.782-39.033 72.513-81.008 72.513z" fill="#edd17a"/></g><g><path d="m41.485 151.139c4.151 0 7.515-3.365 7.515-7.515v-121.08c0-4.144 3.371-7.515 7.515-7.515h245.425v70.575c0 12.431 10.114 22.544 22.544 22.544h70.574v94.306c0 4.15 3.364 7.515 7.515 7.515s7.515-3.365 7.515-7.515v-101.82c.005-1.975-.808-3.918-2.201-5.313l-93.119-93.12c-1.395-1.394-3.339-2.206-5.314-2.201h-252.939c-12.43 0-22.544 10.113-22.544 22.544v121.08c0 4.15 3.364 7.515 7.514 7.515zm275.484-125.482 67.462 67.462h-59.947c-4.144 0-7.515-3.371-7.515-7.515z"/><path d="m206.033 92.615c0-4.15-3.364-7.515-7.515-7.515h-111.945c-4.151 0-7.515 3.365-7.515 7.515s3.364 7.515 7.515 7.515h111.945c4.151 0 7.515-3.365 7.515-7.515z"/><path d="m86.573 124.086c-4.151 0-7.515 3.365-7.515 7.515s3.364 7.515 7.515 7.515h57.839c4.151 0 7.515-3.365 7.515-7.515s-3.364-7.515-7.515-7.515z"/><path d="m198.519 394.182h-111.946c-4.151 0-7.515 3.365-7.515 7.515s3.364 7.515 7.515 7.515h111.945c4.151 0 7.515-3.365 7.515-7.515 0-4.151-3.364-7.515-7.514-7.515z"/><path d="m198.519 433.167h-111.946c-4.151 0-7.515 3.365-7.515 7.515s3.364 7.515 7.515 7.515h111.945c4.151 0 7.515-3.364 7.515-7.515s-3.364-7.515-7.514-7.515z"/><path d="m400.21 414.082c-1.078-.381-2.174-.776-3.272-1.181v-20.727c1.813.8 2.875 1.682 2.875 1.682 1.34 1.238 3.132 1.992 5.1 1.992 4.15 0 7.515-3.365 7.515-7.515 0-2.186-.935-4.152-2.425-5.525-.043-.04-.099-.082-.144-.123-.083-.073-.166-.146-.253-.216-2.539-2.205-6.956-4.802-12.668-6.001v-3.356c0-4.15-3.364-7.515-7.515-7.515s-7.515 3.365-7.515 7.515v3.867c-.29.079-.581.157-.874.245-8.422 2.537-14.709 9.72-16.411 18.746-1.564 8.3 1.143 16.341 7.066 20.986 2.677 2.1 5.924 4.027 10.219 6.018v28.189c-2.728-.49-4.936-1.546-8.308-3.751-3.474-2.272-8.131-1.298-10.402 2.175-2.272 3.473-1.298 8.13 2.175 10.402 6.267 4.1 10.87 5.732 16.535 6.311v3.786c0 4.15 3.364 7.515 7.515 7.515s7.515-3.365 7.515-7.515v-4.513c11.497-3.118 18.865-13.022 20.508-22.794 2.146-12.76-4.781-24.294-17.236-28.697zm-18.301-8.254c-.329-.23-.646-.462-.944-.696-1.468-1.151-2.084-3.654-1.57-6.377.313-1.661 1.124-3.528 2.515-4.988v12.061zm20.715 34.462c-.556 3.306-2.482 6.769-5.686 8.969v-20.261c6.265 3.111 6.1 8.831 5.686 11.292z"/><path d="m410.087 336.19v-103.677c0-4.15-3.364-7.515-7.515-7.515s-7.515 3.365-7.515 7.515v101.334c-2.054-.142-4.126-.22-6.215-.22-8.256 0-16.251 1.132-23.843 3.242v-153.872c0-4.15-3.364-7.515-7.515-7.515h-270.911c-4.151 0-7.515 3.365-7.515 7.515v164.379c0 4.15 3.364 7.515 7.515 7.515h244.538c-19.233 16.372-31.456 40.745-31.456 67.922 0 30.881 15.779 58.144 39.695 74.158h-282.835c-4.144 0-7.515-3.371-7.515-7.515v-315.773c0-4.15-3.364-7.515-7.515-7.515s-7.515 3.364-7.515 7.515v315.773c0 12.431 10.113 22.544 22.544 22.544h331.028c.105 0 .217-.009.323-.012.326.004.65.012.976.012 49.178 0 89.187-40.009 89.187-89.187.001-41.858-28.987-77.067-67.941-86.623zm-116.09 3.672h-40.943v-32.122c0-4.15-3.364-7.515-7.515-7.515s-7.515 3.365-7.515 7.515v32.121h-143.936v-149.35h143.936v87.17c0 4.15 3.364 7.515 7.515 7.515s7.515-3.364 7.515-7.515v-87.17h40.943zm15.029 0v-149.35h40.943v149.35zm79.816 157.109c-40.891 0-74.158-33.267-74.158-74.158 0-40.89 33.267-74.157 74.158-74.157 40.89 0 74.158 33.267 74.158 74.157 0 40.891-33.267 74.158-74.158 74.158z"/></g></g></svg>