<svg xmlns="http://www.w3.org/2000/svg" xmlns:xlink="http://www.w3.org/1999/xlink" width="512.001" height="512.001" viewBox="0 0 512.001 512.001">
  <defs>
    <rect id="rect-1" width="512.001" height="512.001" x="0" y="0"/>
    <mask id="mask-2" maskContentUnits="userSpaceOnUse" maskUnits="userSpaceOnUse">
      <rect width="512.001" height="512.001" x="0" y="0" fill="black"/>
      <use fill="white" xlink:href="#rect-1"/>
    </mask>
  </defs>
  <g>
    <use fill="none" xlink:href="#rect-1"/>
    <g mask="url(#mask-2)">
      <path fill="rgb(125,125,125)" fill-rule="evenodd" d="M453.11098456 251.9749837c-2.08700561 0-4.18399047-.65100098-5.96600341-1.97698975l-7.14498902-5.31500245v89.67601014c6.33200073 2.04501342 12.24398804 5.66500854 17.09799195 10.84298706 7.67700195 8.19000244 11.54901123 18.87301635 10.90200805 30.08102417-.6460266 11.2079773-5.72302246 21.37399292-14.2920227 28.62597656L345.53798652 495.4519887c-12.61001587 10.67202758-28.65200806 16.54898071-45.17300415 16.54898071H157.57300544c-1.13198853 0-2.25498963-.19198608-3.32199097-.56796265l-46.50901031-16.3829956c-1.47499848 9.58200073-9.75299836 16.95095825-19.7420044 16.95095825h-68C8.97199988 512.00096941 0 503.02901506 0 492.00099993v-148c0-11.02798462 8.97199988-20 19.99999976-20h52V244.6829915l-7.1439972 5.31500245c-3.98500442 2.96398925-9.54000472 2.55499267-13.0470047-.95899964L2.92199994 200.05298662C.87 197.99698687-.187 195.15099382.027 192.25498247c.21299998-2.8959961 1.67399998-5.55699158 4.0039999-7.28999328l98.95300102-73.6049881c4.43099976-3.29599762 10.6949997-2.3769989 13.9920044 2.0550003 3.29699707 4.43099976 2.37599945 10.69599915-2.0550003 13.9920044l-89.67300607 66.70298767 34.60899926 34.67999267L250.03101325 87.32900286c3.54299927-2.63600159 8.39497376-2.63600159 11.93797302 0l190.1749878 141.46098327 34.60900878-34.67999267L255.99999213 22.46500063l-81.59698486 60.69600296c-4.42999268 3.29699707-10.69499207 2.3769989-13.99198914-2.0550003-3.29701233-4.43099976-2.37600708-10.69599915 2.05499268-13.99199677l87.56500244-65.1360066c3.54299927-2.63599991 8.39497376-2.63599991 11.93797302 0l112.03100586 83.33400465V48.00099993c0-5.52299881 4.47799683-10 10-10h64c5.52200318 0 10 4.47700119 10 10v99.79399109l49.97000122 37.16999817c2.32998658 1.7330017 3.79098511 4.39399719 4.0039978 7.28999328.2130127 2.89700318-.84301757 5.7420044-2.89501953 7.79800415l-48.8869934 48.9860077c-1.93798829 1.94200134-4.50299073 2.93598937-7.08099366 2.93598937zm-59.11099243-151.78598786l44 32.72899628v-74.9169922h-44v42.18799592zm54.03302002 273.93999481c.32699585-5.68200684-1.63500976-11.09799194-5.52801514-15.25-7.46899414-7.97000122-19.87200927-8.70700073-28.23498535-1.67800903l-79.60403442 66.91201782c-4.22799683 3.55300903-10.53497314 3.0079956-14.08999634-1.22000122-3.55297851-4.22799683-3.00698852-10.53601074 1.2210083-14.08898926l79.6040039-66.91201782c5.52700807-4.64498902 11.94900514-7.5619812 18.59899903-8.80801392h.00100708V229.8059926l-164-121.99098968-164 121.99098968v94.59799195c8.48000336 1.7290039 15.02400208 8.84002685 15.89800263 17.59701538h73.45700836c13.84999084 0 27.26298523 4.06100464 38.78700256 11.74301147l66.89897156 44.59899903c7.56500244 5.04397583 12.60900879 12.75097656 14.20300293 21.70199585 1.59301758 8.95199584-.48098755 17.92700195-5.83999634 25.27099609-6.3909912 8.75698852-16.42999267 13.565979-26.7170105 13.565979-4.80099487 0-9.65499878-1.04598999-14.21897888-3.22698974l-57.2330017-27.33798218c-4.98399354-2.38000488-7.09399415-8.3500061-4.71298219-13.33300781 2.37998963-4.9840088 8.34799195-7.09399414 13.33398438-4.7130127l57.23298645 27.3380127c5.66201782 2.7080078 12.4590149.98800659 16.15899658-4.08099366 2.11599732-2.89901733 2.934021-6.4420166 2.30499268-9.97601318-.6289978-3.53399658-2.61999512-6.57598877-5.60598755-8.56698608l-66.89898682-44.59899903c-8.22799682-5.48602295-17.80400085-8.38500976-27.69400024-8.38500976h-73.35500336v111.93499756l51.28299713 18.06500244H300.3640058c11.79599 0 23.25-4.1960144 32.25299073-11.81600952l108.17001342-91.54299927c4.34500123-3.67700195 6.91799927-8.83099365 7.2460022-14.51300049zM19.99999976 492.00099993v-148h24v74c0 5.52301025 4.47800064 10 10 10s10-4.47698975 10-10v-74h24v8.01400757l.01100159 128.54901123c-.0104065.21847534-.00559998.43609619-.00081635.6529541l.00081635.03704834.0019989 10.74697876H19.99999976z"/>
      <path fill="rgb(125,125,125)" fill-rule="evenodd" d="M146.649 89.531c-1.859-1.86-4.439-2.93-7.069-2.93-2.641 0-5.221 1.07-7.08 2.93-1.86 1.86-2.92 4.44-2.92 7.07s1.06 5.21 2.92 7.07c1.87 1.86 4.44 2.93 7.08 2.93 2.63 0 5.199-1.07 7.069-2.93 1.86-1.86 2.931-4.44 2.931-7.07s-1.07-5.21-2.931-7.07z"/>
      <path fill="rgb(125,125,125)" fill-rule="evenodd" d="M294.24 193.245c-4.809-2.716-10.909-1.019-13.624 3.792L214.07 314.914c-2.715 4.809-1.018 10.909 3.792 13.624 1.554.877 3.241 1.294 4.907 1.294 3.489 0 6.879-1.83 8.717-5.086l66.546-117.877c2.715-4.809 1.018-10.909-3.792-13.624z"/>
      <path fill="rgb(125,125,125)" fill-rule="evenodd" d="M266.04800415 302.90701294c0-18.74798584 15.25201416-34 34-34 18.74801636 0 34 15.25201416 34 34 0 18.74801636-15.25198364 34-34 34-18.74798584 0-34-15.25198364-34-34zm20 0c0 7.72000122 6.27999878 14 14 14s14-6.27999878 14-14-6.27999878-14-14-14-14 6.27999878-14 14z"/>
      <path fill="rgb(125,125,125)" fill-rule="evenodd" d="M178.05299377 206.0119934c0-18.74800109 15.2519989-34 34-34s34 15.25199891 34 34c0 18.7480011-15.2519989 34-34 34s-34-15.2519989-34-34zm20 0c0 7.72000123 6.27999878 14 14 14 7.72000123 0 14-6.27999877 14-14 0-7.72000121-6.27999877-14-14-14-7.72000122 0-14 6.27999879-14 14z"/>
      <path fill="rgb(125,125,125)" fill-rule="evenodd" d="M61.569 450.431c-1.859-1.86-4.439-2.93-7.069-2.93s-5.21 1.07-7.07 2.93c-1.87 1.86-2.93 4.44-2.93 7.07s1.06 5.21 2.93 7.07c1.86 1.86 4.44 2.93 7.07 2.93s5.21-1.07 7.069-2.93c1.86-1.86 2.931-4.44 2.931-7.07s-1.07-5.21-2.931-7.07z"/>
    </g>
  </g>
</svg>
