<svg xmlns="http://www.w3.org/2000/svg" xmlns:xlink="http://www.w3.org/1999/xlink" width="127.279" height="127.279" viewBox="0 0 127.279 127.279">
  <defs>
    <rect id="rect-1" width="90" height="90" x="18.64" y="18.64"/>
    <mask id="mask-2" maskContentUnits="userSpaceOnUse" maskUnits="userSpaceOnUse">
      <rect width="127.279" height="127.279" x="0" y="0" fill="black"/>
      <use fill="white" xlink:href="#rect-1"/>
    </mask>
  </defs>
  <g transform="rotate(45.000016 63.6396103 63.6396103)">
    <use fill="none" xlink:href="#rect-1"/>
    <g mask="url(#mask-2)">
      <rect width="90" height="90" x="18.64" y="18.64" fill="none" rx="0" ry="0"/>
      <g>
        <path fill="rgb(55,151,240)" fill-rule="evenodd" d="M35.35534442 82.73150135L82.73148546 35.3553337c2.53670785-2.53670928 6.65567888-2.53671044 9.19238815-.00000258 2.53670928 2.53670785 2.53671044 6.65567888.00000259 9.19238815L44.54773516 91.92388692c-2.53670785 2.53670928-6.65567888 2.53671044-9.19238815.00000258-2.53670928-2.53670785-2.53671044-6.65567888-.0000026-9.19238815z"/>
        <path fill="rgb(55,151,240)" fill-rule="evenodd" d="M44.54773516 35.3553337L91.9238762 82.73150135c2.53670785 2.53670927 2.5367067 6.6556803-.0000026 9.19238815-2.53670926 2.53670786-6.6556803 2.5367067-9.19238814-.00000258L35.3553444 44.54771927c-2.53670785-2.53670927-2.5367067-6.6556803.00000259-9.19238815 2.53670927-2.53670786 6.6556803-2.5367067 9.19238815.00000258z"/>
      </g>
    </g>
  </g>
</svg>
