<?xml version="1.0"?>
<svg xmlns="http://www.w3.org/2000/svg" height="512px" viewBox="0 0 64 64" width="512px"><g><g id="Dollar-2" data-name="Dollar"><path d="m49 35a17 17 0 1 0 -17 17 17.019 17.019 0 0 0 17-17zm-17 15a15 15 0 1 1 15-15 15.017 15.017 0 0 1 -15 15z" data-original="#000000" class="active-path" data-old_color="#000000" fill="#3797F0"/><path d="m32 21a14 14 0 1 0 14 14 14.015 14.015 0 0 0 -14-14zm0 26a12 12 0 1 1 12-12 12.013 12.013 0 0 1 -12 12z" data-original="#000000" class="active-path" data-old_color="#000000" fill="#3797F0"/><path d="m59 56h-4v-31.563l.668.382a3.009 3.009 0 0 0 1.491.394 2.975 2.975 0 0 0 .867-.128 3.005 3.005 0 0 0 1.813-1.528l.209-.417a3 3 0 0 0 -1.194-3.947l-3.854-2.202v-9.175a2.993 2.993 0 0 0 -1-5.816h-8a2.993 2.993 0 0 0 -1.015 5.811v3.458l-11.497-6.569a3.008 3.008 0 0 0 -2.976 0l-25.366 14.493a3 3 0 0 0 -1.194 3.947l.208.416a3 3 0 0 0 4.172 1.263l.668-.382v31.563h-4a3 3 0 0 0 0 6h54a3 3 0 0 0 0-6zm-13-52h8a1 1 0 0 1 0 2h-8a1 1 0 0 1 0-2zm.985 4h6.015v7.848l-6.015-3.437zm-39.646 15.083a1 1 0 0 1 -1.39-.422l-.208-.416a1 1 0 0 1 .4-1.315l25.359-14.495a1 1 0 0 1 .992 0l25.365 14.5a1 1 0 0 1 .4 1.315l-.209.417a1 1 0 0 1 -1.39.421l-23.169-13.246a3.009 3.009 0 0 0 -2.977 0zm3.661.217 20.5-11.722a1 1 0 0 1 .992 0l20.508 11.716v32.706h-42zm48 36.7h-54a1 1 0 0 1 0-2h54a1 1 0 0 1 0 2z" data-original="#000000" class="active-path" data-old_color="#000000" fill="#3797F0"/><path d="m32 30a2 2 0 0 1 2 2h2a4 4 0 0 0 -3-3.858v-2.142h-2v2.142a3.992 3.992 0 0 0 1 7.858 2 2 0 1 1 -2 2h-2a4 4 0 0 0 3 3.858v2.142h2v-2.142a3.992 3.992 0 0 0 -1-7.858 2 2 0 0 1 0-4z" data-original="#000000" class="active-path" data-old_color="#000000" fill="#3797F0"/><path d="m13 52h4v2h-4z" data-original="#000000" class="active-path" data-old_color="#000000" fill="#3797F0"/><path d="m47 52h4v2h-4z" data-original="#000000" class="active-path" data-old_color="#000000" fill="#3797F0"/><path d="m19 52h2v2h-2z" data-original="#000000" class="active-path" data-old_color="#000000" fill="#3797F0"/><path d="m43 52h2v2h-2z" data-original="#000000" class="active-path" data-old_color="#000000" fill="#3797F0"/></g></g> </svg>
