<svg xmlns="http://www.w3.org/2000/svg" width="62" height="62" viewBox="0 0 62 62">
  <g>
    <path fill="rgb(55,151,240)" fill-rule="evenodd" d="M36 22H26c-.55200005 0-1-.44799995-1-1V9c0-.55200005.44799995-1 1-1h10c.55200195 0 1 .44799995 1 1v12c0 .55200005-.44799805 1-1 1zm-1-10v-2h-8v2h8zm-8 4v-2h8v2h-8zm0 2v2h8v-2h-8z"/>
    <path fill="rgb(55,151,240)" fill-rule="evenodd" d="M19 23h-8c-.55200005 0-1 .44799995-1 1v8c0 .55200195.44799995 1 1 1h8c.55200005 0 1-.44799805 1-1v-8c0-.55200005-.44799995-1-1-1zm-5 4v-2h-2v2h2zm4 0h-2v-2h2v2zm-6 2h2v2h-2v-2zm4 0v2h2v-2h-2z"/>
    <path fill="rgb(55,151,240)" fill-rule="evenodd" d="M55.00000083 42H37.30500114c2.83399963 1.99200058 4.6949997 5.27999878 4.6949997 9 0 6.06499863-4.93500138 11-11 11-6.06500054 0-11-4.93500137-11-11 0-3.72000122 1.86100006-7.00799942 4.69499969-9H6.99999988c-.55200004 0-1-.44799805-1-1V18.86800003l-4.44500005 2.9640007-1.10899985-1.66399956 30-20.00000119c.33600044-.22399997.77300262-.22399997 1.10900116 0l6.49599838 4.33099962C38.3060006 1.98000002 40.41500175 0 43.00000083 0c2.75699997 0 5 2.24300003 5 5v6.13199997l13.55400086 9.0360012-1.10900116 1.66399956-4.4449997-2.9640007V41c0 .55200195-.44800186 1-1 1zm-12-40c-1.65399932 0-3 1.34599972-3 3v.79800034l6 4V5c0-1.65400028-1.34600067-3-3-3zM7.99999988 17.53499985L31.00000083 2.2019999l15 9.99999976v5.1800003l-3.4469986 1.72399903c-.3390007.16900063-.5530014.5150013-.5530014.89400101v12c0 .55200195.44800187 1 1 1h8c.55199814 0 1-.44799805 1-1V20c0-.37899971-.2140007-.72500038-.5530014-.89500046l-3.4469986-1.72299957v-3.84700012l6 4V40h-16v-9c0-3.86000061-3.13999939-7-7-7-3.8600006 0-7 3.13999939-7 7v9H7.99999988V17.53499985zm42.00000095 3.08300018l-2-1V23h-2v-3.38199997l-2 1V31h6V20.61800003zM26.00000083 40v-9c0-2.75699997 2.24300003-5 5-5s5 2.24300003 5 5v9h-10zm-4 11c0 4.96199799 4.03800011 9 9 9 4.96199799 0 9-4.03800201 9-9s-4.03800201-9-9-9c-4.96199989 0-9 4.03800201-9 9z"/>
    <path fill="rgb(55,151,240)" fill-rule="evenodd" d="M31 46c1.103 0 2 .897 2 2h2c0-1.858-1.28-3.411-3-3.858V43h-2v1.142c-1.72.447-3 2-3 3.858 0 2.206 1.794 4 4 4 1.103 0 2 .897 2 2s-.897 2-2 2-2-.897-2-2h-2c0 1.858 1.28 3.411 3 3.858V59h2v-1.142c1.72-.447 3-2 3-3.858 0-2.206-1.794-4-4-4-1.103 0-2-.897-2-2s.897-2 2-2z"/>
    <path fill="rgb(55,151,240)" fill-rule="evenodd" d="M62 53c0 .55200195-.44799805 1-1 1h-1v2h1c.55200195 0 1 .44799805 1 1v4c0 .55200195-.44799805 1-1 1H47c-.55200195 0-1-.44799805-1-1v-3h-1c-.55199814 0-1-.44799805-1-1v-4c0-.55200195.44800186-1 1-1h1v-3c0-.55199814.44799805-1 1-1h14c.55200195 0 1 .44800186 1 1v4zm-2-3H48v2h12v-2zm-14 6h12v-2H46v2zm14 4H48v-2h12v2z"/>
    <path fill="rgb(55,151,240)" fill-rule="evenodd" d="M3 48h14c.55200005 0 1 .44800186 1 1v4c0 .55200195-.44799995 1-1 1h-1v2h1c.55200005 0 1 .44799805 1 1v4c0 .55200195-.44799995 1-1 1H3c-.55200005 0-1-.44799805-1-1v-3H1c-.55200005 0-1-.44799805-1-1v-4c0-.55200195.44799995-1 1-1h1v-3c0-.55199814.44799995-1 1-1zm1 4h12v-2H4v2zm10 4H2v-2h12v2zM4 60h12v-2H4v2z"/>
  </g>
</svg>
