<svg xmlns="http://www.w3.org/2000/svg" width="60.003" height="60" viewBox="0 0 60.003 60">
  <g>
    <path fill="rgb(125,125,125)" fill-rule="evenodd" d="M13.00030208 0h42c2.76005172.00330615 4.99669265 2.23994684 5 5v4c0 .5522852-.44771576 1-1 1h-7v6.39299965c0 .55228424-.44771576 1-1 1s-1-.44771576-1-1V5c.00367736-1.08546925.36419296-2.13961124 1.02600097-3H13.00030208c-1.65685463 0-3 1.34314585-3 3v17.66699982c0 .55228424-.44771576 1-1 1-.5522852 0-1-.44771576-1-1V5c.00330639-2.76005316 2.23994636-4.99669385 5-5zm39 5v3h6V5c0-1.65685415-1.34314728-3-3-3-1.65685273 0-3 1.34314585-3 3z"/>
    <path fill="rgb(125,125,125)" fill-rule="evenodd" d="M50.00030208 41.3919983c0-.55228425.44771576-1 1-1s1 .44771575 1 1V55c-.00330735 2.76005173-2.23994828 4.99669266-5 5h-42c-2.76005316-.00330734-4.99669385-2.23994827-5-5v-2c0-.55228424.44771528-1 1-1h42c.55228424 0 1 .44771576 1 1v2c0 1.65685272 1.34314727 3 3 3 1.65685272 0 3-1.34314728 3-3V41.3919983zM2.00030208 55c0 1.65685272 1.34314584 3 3 3h38c-.6504097-.8647995-1.00144959-1.91791534-1-3v-1h-40v1z"/>
    <path fill="rgb(125,125,125)" fill-rule="evenodd" d="M1.00030208 34h18.99999928v12h-3v-5c0-1.65685272-1.34314442-3-2.99999905-3h-2c-1.65685462 0-3 1.34314728-3 3v5h-3v-9c0-.55228424-.4477148-1-1-1-.55228424 0-1 .44771576-1 1v10c0 .55228424.44771576 1 1 1h15.99999905c.55228424 0 1-.44771576 1-1V34h3c.440691.00009918.8294983-.28830338.95726967-.71006775.12777328-.42176056-.03561401-.87744903-.40226936-1.12193298l-12-8c-.33603669-.2241993-.77396298-.2241993-1.10999966 0l-11.99999976 8c-.36665583.24448395-.53004289.70017242-.4022708 1.12193298.12777186.42176437.51657868.71016693.95727063.71006775zm20.70000004-2l-8.6999998-5.79999924L4.3003025 32h17.39999961zm-10.6999998 14v-5c0-.55228424.4477148-1 1-1h2c.55228424 0 1 .44771576 1 1v5h-4z"/>
    <path fill="rgb(125,125,125)" fill-rule="evenodd" d="M56.22230601 15.10019493c.76903153-.20632553 1.58853531-.09847069 2.27799607.29980469.68990326.39750862 1.19348144 1.0529728 1.39980316 1.82200432.20632934.76902961.0984726 1.58853721-.29980469 2.27799606l-1.5 2.59999847c.22988129.13295365.39743424.35188294.46571732.60850907.06828308.25662803.03168869.5298767-.1017151.75949096l-1.5 2.6000023.86600114.5c.31195068.17736053.50495147.50827216.50574112.86711692.00078964.35884667-.19075775.69060326-.50192643.86933327-.31116485.17873192-.69424438.17703247-1.0038147-.00445175l-.86600112-.5-2.23699951 3.88499832c-.27614212.47855759-.88794709.64264679-1.36650086.36650085-.47855377-.27614212-.64264297-.88794326-.36650085-1.36650085l2.24499893-3.88799667-3.46299744-2-9 15.58800125 1.73199845 1 1.73200225 1 4.7539978-8.23600006c.27614213-.4785576.88794709-.6426468 1.36650086-.36650086.47855377.2761383.64264298.88794327.36650086 1.36650086l-5.25500107 9.09999847c-.0149994.02600098-.03699875.04499817-.05400086.0699997-.02780532.04206085-.05890274.08185195-.0929985.11899948-.0284462.02843093-.05885315.05482864-.0909996.07899856-.02437592.02415848-.05044175.04654694-.07799912.06700134l-2.90000152 1.91300202c-.42720795.28344726-.9283104.43506622-1.44099808.435997-.11214066-.00769805-.22369385-.02239227-.33400345-.04399871l-.6099968 1.05599975c-.27614212.47855378-.88794708.64263916-1.36650085.36650086-.47855377-.27614594-.64264298-.88794708-.36650086-1.36650086l.61100007-1.05799865c-.38581849-.49227143-.58078766-1.10736084-.5489998-1.73200226l.19800187-3.45999909c.00099945-.01499938.00699997-.019001.00899887-.04399871.0019989-.02500153.01300049-.04800415.01300049-.0719986.01871109-.09951782.0524292-.19561386.09999847-.28500366.00600052-.01200104.00600052-.02700043.0130005-.03900147l9.5-16.45399856-.86600114-.5c-.47801971-.27629662-1.08950805-.1129036-1.36599731.36500168l-4 6.92900085c-.27614594.47855377-.88794708.64263916-1.36650086.36650086-.47855377-.27614594-.64264297-.88794709-.36650085-1.36650277l4-6.92899894c.39751053-.68990326 1.0529747-1.19348145 1.82200241-1.39980698.76903153-.20632362 1.58853912-.09846878 2.27799606.2998066l.86600113.5 1.5-2.60000039c.27614975-.47826767.88772202-.6421299 1.36600113-.36600113l1.5-2.59999847c.39750672-.68990135 1.05297089-1.19347954 1.82200241-1.39980507zM56.1333015 17.5c.27649307-.47790527.88798141-.64129639 1.36600113-.36499977.47766876.27612305.64144897.88694382.36600112 1.36499977l-1.5 2.60000038-.86600112-.5-.86700058-.5L56.1333015 17.5zm-3.36499787 3.83099937l-1 1.73200036 3.46300125 2 1-1.73200036-3.46300125-2zm-11.26897049 23.5156498c.20273972.11724472.45428849.11002731.64997101-.01865006l1.55099869-1.02199935-2.39699936-1.38199997-.11199951 1.84999847c-.01392365.23378754.10528946.45541.30802917.57265091z"/>
    <path fill="rgb(125,125,125)" fill-rule="evenodd" d="M40.00030208 7v4c0 .55228424-.44771576 1-1 1h-18c-.55228424 0-1-.44771576-1-1V7c0-.5522852.44771576-1 1-1h18c.55228424 0 1 .4477148 1 1zm-18 3h16V8h-16v2z"/>
    <path fill="rgb(125,125,125)" fill-rule="evenodd" d="M25.00030208 15c-.55228475 0-1 .44771525-1 1s.44771525 1 1 1h10c.55228475 0 1-.44771525 1-1s-.44771525-1-1-1h-10z"/>
    <path fill="rgb(125,125,125)" fill-rule="evenodd" d="M21.00030208 22h18c.55228475 0 1-.44771525 1-1s-.44771525-1-1-1h-18c-.55228475 0-1 .44771525-1 1s.44771525 1 1 1z"/>
    <path fill="rgb(125,125,125)" fill-rule="evenodd" d="M21.00030208 27h19c.55228475 0 1-.44771525 1-1s-.44771525-1-1-1h-19c-.55228475 0-1 .44771525-1 1s.44771525 1 1 1z"/>
    <path fill="rgb(125,125,125)" fill-rule="evenodd" d="M38.00030208 30h-9c-.55228475 0-1 .44771525-1 1s.44771525 1 1 1h9c.55228475 0 1-.44771525 1-1s-.44771525-1-1-1z"/>
    <path fill="rgb(125,125,125)" fill-rule="evenodd" d="M39.00030208 37c0-.55228475-.44771525-1-1-1h-13c-.55228475 0-1 .44771525-1 1s.44771525 1 1 1h13c.55228475 0 1-.44771525 1-1z"/>
    <path fill="rgb(125,125,125)" fill-rule="evenodd" d="M27.00030208 41c-.55228475 0-1 .44771525-1 1s.44771525 1 1 1h7c.55228475 0 1-.44771525 1-1s-.44771525-1-1-1h-7z"/>
  </g>
</svg>
